<?xml version="1.0" encoding="UTF-8" standalone="no"?>
<svg
   xmlns:osb="http://www.openswatchbook.org/uri/2009/osb"
   xmlns:dc="http://purl.org/dc/elements/1.1/"
   xmlns:cc="http://creativecommons.org/ns#"
   xmlns:rdf="http://www.w3.org/1999/02/22-rdf-syntax-ns#"
   xmlns:svg="http://www.w3.org/2000/svg"
   xmlns="http://www.w3.org/2000/svg"
   xmlns:sodipodi="http://sodipodi.sourceforge.net/DTD/sodipodi-0.dtd"
   xmlns:inkscape="http://www.inkscape.org/namespaces/inkscape"
   viewBox="0 0 960.89569 960.89572"
   version="1.0"
   id="svg196"
   sodipodi:docname="bow-and-arrow.svg"
   inkscape:version="1.0.1 (0767f8302a, 2020-10-17)"
   width="960.89569"
   height="960.89569">
  <metadata
     id="metadata202">
    <rdf:RDF>
      <cc:Work
         rdf:about="">
        <dc:format>image/svg+xml</dc:format>
        <dc:type
           rdf:resource="http://purl.org/dc/dcmitype/StillImage" />
        <dc:title></dc:title>
      </cc:Work>
    </rdf:RDF>
  </metadata>
  <defs
     id="defs200">
    <linearGradient
       id="linearGradient844"
       osb:paint="solid">
      <stop
         style="stop-color:#000000;stop-opacity:1;"
         offset="0"
         id="stop842" />
    </linearGradient>
    <linearGradient
       id="linearGradient838"
       osb:paint="solid">
      <stop
         style="stop-color:#000000;stop-opacity:1;"
         offset="0"
         id="stop836" />
    </linearGradient>
  </defs>
  <sodipodi:namedview
     pagecolor="#ffffff"
     bordercolor="#666666"
     borderopacity="1"
     objecttolerance="10"
     gridtolerance="10"
     guidetolerance="10"
     inkscape:pageopacity="0"
     inkscape:pageshadow="2"
     inkscape:window-width="1920"
     inkscape:window-height="1052"
     id="namedview198"
     showgrid="false"
     inkscape:zoom="0.80280965"
     inkscape:cx="381.8407"
     inkscape:cy="405.96797"
     inkscape:window-x="0"
     inkscape:window-y="1080"
     inkscape:window-maximized="1"
     inkscape:current-layer="g194"
     inkscape:document-rotation="0"
     fit-margin-top="0"
     fit-margin-left="0"
     fit-margin-right="0"
     fit-margin-bottom="0" />
  <g
     class="arrow-group"
     stroke="#000000"
     id="g194"
     transform="translate(-135.57028,-0.00216857)">
    <path
       d="m 388.5,847.95 c -13.48,-39.718 5.858,-63.523 30,-85 l 20,35 c -5.975,12.547 1.28,20.684 5,30 -22.018,21.406 -38.646,21.249 -55,20 z m 75,-80 c -14.186,-3.944 -19.89,-14.249 -25,-25 50,-40 232.58,-105.51 120,-195 l 10,-69 h 45 l -5,49 c 99.786,61.111 10,155 -10,170 -45,22.475 -90,37.264 -135,70 z m -75,-665 c -13.48,39.718 5.858,63.523 30,85 l 20,-35 c -5.975,-12.547 1.28,-20.684 5,-30 -22.018,-21.406 -38.646,-21.249 -55,-20 z m 75,80 c -14.186,3.944 -19.89,14.249 -25,25 50,40 232.58,105.51 120,195 l 10,73 h 45 l -5,-53 c 99.786,-61.111 10,-155 -10,-170 -45,-22.475 -90,-37.264 -135,-70 z"
       id="path188"
       sodipodi:nodetypes="cccccccccccccccccccccccccc" />
    <path
       id="path190"
       style="fill-opacity:1"
       d="m 433.41211,747.78906 -9.94141,10.10742 0.0293,0.0527 20,40 c 17.945,9.417 23.094,-0.359 25,-15 -12.381,-10.714 -25.862,-19.961 -35,-35 z" />
    <path
       id="path842"
       style="fill-opacity:1"
       d="m 439.22904,417.72416 c -8.4428,-0.27788 -11.21563,7.38065 -13.7753,15.33757 l 6.00646,319.92235 13.51484,-4.28258 z"
       class="bottom-line" />
    <path
       id="path1032"
       style="fill-opacity:1;stroke-width:1.12267"
       d="m 438.9914,202.76576 -13.66026,-4.61331 0.27189,158.32738 0.10637,61.94326 0.20832,121.31327 12.99038,-9.45287 z"
       class="top-line"
       sodipodi:nodetypes="ccccccc" />
    <path
       id="path1037"
       style="fill-opacity:1"
       d="m 454.70898,149.26172 c -3.03601,0.179 -6.72273,1.33325 -11.20898,3.6875 l -20,40 10,10 c 9.138,-15.039 22.619,-24.286 35,-35 -1.4295,-10.98075 -4.68297,-19.2245 -13.79102,-18.6875 z" />
    <path
       d="m 892.502,475.95 c -40.757,21.427 -82.087,37.127 -124,47 l 30,-35 h -280 l -25,25 H 423.5 l -4.998,-55 -30,-25 h 105 l 25,30 h 280 l -30,-35 c 45.008,9.498 86.501,25.216 124,48 z M 422.24941,492.5774 423.5,512.95 h -35 z"
       id="path192"
       class="arrow"
       sodipodi:nodetypes="ccccccccccccccccc" />
    <circle
       style="fill-opacity:1"
       id="path1102"
       cx="429.11633"
       cy="195.52806"
       class="top-circle"
       r="23.532804" />
    <circle
       style="fill-opacity:1"
       id="circle845"
       cx="429.11633"
       cy="753.84747"
       class="bottom-circle"
       r="23.532804" />
  </g>
</svg>
