<?xml version="1.0" encoding="UTF-8"?>
<svg width="100.94" height="147.84" version="1.0" viewBox="0 0 100.94 147.84" xmlns="http://www.w3.org/2000/svg" xmlns:osb="http://www.openswatchbook.org/uri/2009/osb">
 <g class="arrow-group" stroke="#000">
  <path d="m3.5458 148.66c-2.6683-7.8619 1.1596-12.574 5.9383-16.825l3.9589 6.928c-1.1827 2.4836 0.25337 4.0943 0.98972 5.9383-4.3583 4.2372-7.6497 4.2061-10.887 3.9589zm14.846-15.835c-2.808-0.78069-3.9371-2.8205-4.9486-4.9486 9.8972-7.9178 46.038-20.885 23.753-38.599l1.9794-13.658h8.9075l-0.98972 9.6992c19.752 12.097 1.9794 30.681-1.9794 33.65-8.9075 4.4488-17.815 7.3762-26.722 13.856zm-14.846-131.63c-2.6683 7.8619 1.1596 12.574 5.9383 16.825l3.9589-6.928c-1.1827-2.4836 0.25337-4.0943 0.98972-5.9383-4.3583-4.2372-7.6497-4.2061-10.887-3.9589zm14.846 15.835c-2.808 0.78069-3.9371 2.8205-4.9486 4.9486 9.8972 7.9177 46.038 20.885 23.753 38.599l1.9794 14.45h8.9075l-0.98972-10.491c19.752-12.097 1.9794-30.681-1.9794-33.65-8.9075-4.4488-17.815-7.3762-26.722-13.856z" stroke-width=".19794"/>
  <g>
   <path d="m12.436 128.83-1.9678 2.0007 0.0058 0.0104 3.9589 7.9177c3.5521 1.864 4.5713-0.0711 4.9486-2.9692-2.4507-2.1208-5.1192-3.9512-6.928-6.928z" stroke-width=".19794"/>
   <path class="bottom-line" d="m13.587 63.495c-1.6712-0.05501-2.2201 1.461-2.7267 3.036l1.1889 63.327 2.6752-0.84771z" stroke-width=".19794"/>
   <path class="top-line" d="m13.54 20.946-2.704-0.91317 0.05382 31.34 0.02105 12.261 0.04124 24.013 2.5714-1.8711z" stroke-width=".22222"/>
   <path d="m16.651 10.355c-0.60096 0.03543-1.3307 0.2639-2.2187 0.72992l-3.9589 7.9177 1.9794 1.9794c1.8088-2.9769 4.4773-4.8073 6.928-6.928-0.28296-2.1736-0.92696-3.8054-2.7298-3.6991z" stroke-width=".19794"/>
  </g>
  <g stroke-width=".19794">
   <path class="arrow" d="m103.31 75.021c-8.0676 4.2413-16.249 7.3491-24.545 9.3034l5.9383-6.928h-55.424l-4.9486 4.9486h-13.856l-0.98932-10.887-5.9383-4.9486h20.784l4.9486 5.9383h55.424l-5.9383-6.928c8.909 1.8801 17.122 4.9913 24.545 9.5013zm-93.084 3.2913 0.24754 4.0326h-6.928z"/>
   <circle class="top-circle" cx="11.586" cy="19.513" r="4.6582"/>
   <circle class="bottom-circle" cx="11.586" cy="130.03" r="4.6582"/>
  </g>
 </g>
</svg>
