<svg xmlns="http://www.w3.org/2000/svg" viewBox="0 0 505 746.91" version="1.0">
  <g class="arrow-group" stroke="#000" fill="#FFF5FF">
    <path d="M140.5 745.95c-13.48-39.718 5.858-63.523 30-85l20 35c-5.975 12.547 1.28 20.684 5 30-22.018 21.406-38.646 21.249-55 20zM215.5 665.95c-14.186-3.944-19.89-14.249-25-25 50-40 232.58-105.51 120-195l10-55h45l-5 35c99.786 61.111 10 155-10 170-45 22.475-90 37.264-135 70zM140.5.95c-13.48 39.718 5.858 63.523 30 85l20-35c-5.975-12.547 1.28-20.684 5-30-22.018-21.406-38.646-21.249-55-20zM215.5 80.95c-14.186 3.944-19.89 14.249-25 25 50 40 232.58 105.51 120 195l10 55h45l-5-35c99.786-61.111 10-155-10-170-45-22.475-90-37.264-135-70z"/>
    <path d="M185.5 645.95c9.138 15.039 22.619 24.286 35 35-1.906 14.641-7.055 24.417-25 15l-20-40-155-280c-1.46-8.23-2.592-16.296 5-20l160 290zM185.5 100.95c9.138-15.039 22.619-24.286 35-35-1.906-14.641-7.055-24.417-25-15l-20 40-135 235h15l130-225z"/>
    <path d="M504.502 373.95c-40.757 21.427-82.087 37.127-124 47l30-35h-280l-25 25h-45l-30-55-30-25h105l25 30h280l-30-35c45.008 9.498 86.501 25.216 124 48zM25.5 390.95l10 20H.5l25-20z"/>
  </g>
</svg>
