<?xml version="1.0" encoding="utf-8"?>
<!DOCTYPE svg PUBLIC "-//W3C//DTD SVG 1.1//EN" "http://www.w3.org/Graphics/SVG/1.1/DTD/svg11.dtd">
<svg version="1.1" id="Layer_1" xmlns="http://www.w3.org/2000/svg" xmlns:xlink="http://www.w3.org/1999/xlink" x="0px" y="0px"
	 viewBox="0 0 1680.3163 1671.4344" enable-background="new 0 0 1680.3163 1671.4344" xml:space="preserve">
<path d="M645.6677,1630.8412c12.5091-44.2766,36.8232-95.7023,65.6517-149.8615c16.3887-31.4755,40.1611-60.2474,71.9117-86.0986
	c10.2759-8.3665,18.1418-19.3634,22.2397-31.9651c9.1843-28.2439,22.2664-57.5431,39.0427-87.8427
	c4.9175-8.8816,12.9139-15.7075,22.4955-19.062c22.8668-8.0051,45.1696-13.3606,66.8177-15.6378
	c13.3221-1.4014,24.9551-9.7687,30.2033-22.0936c2.3462-5.5106,4.259-11.0354,5.7325-16.574
	c2.9257-10.9983,1.6124-22.7263-3.4211-32.9335c-29.2651-59.3462-68.8669-118.8113-117.0403-178.3754
	c-3.873-4.7887-3.5911-11.6532,0.5378-16.2228c36.1851-40.0464,42.9251-114.0255,39.4372-199.7923
	c-0.2813-6.9191,3.6779-13.3002,9.9874-16.1534c34.5315-15.6153,86.8478-17.3745,143.5172-15.742l35.708,333.9086
	c-17.9231,21.2479-29.1354,41.8972-29.1758,62.3927c0.8491,55.402,25.8571,79.0886,68.5273,79.5884
	c48.2336-23.9945,45.2684-53.4275,6.8763-86.6239c-20.9011-15.6393-47.6504,4.3679-23.9141,24.9312
	c21.7458,18.1801,26.8669,31.1462,0.7144,34.3042c-21.4227-6.0077-30.1421-19.8403-27.927-40.4084
	c12.8262-53.3876,51.3494-86.1951,103.6014-108.0081c137.224-51.4762,204.1565-127.4675,194.3689-230.2159
	c-2.7828-40.7393-14.5408-72.6863-40.9413-90.2899c11.7705-54.6985,1.7977-93.3127-32.2745-114.0999
	c17.4647-6.933,30.9651-16.0046,41.0426-26.9228l238.1276-0.0817l-14.6803,40.6299c20.8423-18.1851,54.4705-35.3583,81.575-45.426
	c-27.1113-10.0397-60.7513-27.19-81.6061-45.3605l14.7079,40.6108l-230.489,0.079c21.0677-30.6233,20.4828-72.9277,7.0931-122.1399
	c-38.4932-93.8597-124.6056-151.4733-217.447-225.7391c-55.3893-44.3071-94.8922-88.9501-98.3622-130.5663
	c-1.7395-20.8601,19.2452-34.313,36.1421-24.3822c12.375,7.2731,18.4414,27.0927,4.2727,31.4974
	c-6.4978,2.0199-13.9263-6.4981-20.4309,3.0778c-5.7317,8.4379,4.689,20.771,15.2112,29.9435
	c8.6385,7.5305,37.7543-6.4455,42.6921-20.5401c15.7095-44.8407-12.032-71.4936-46.0378-76.44
	c-31.3179-4.5555-50.2806,23.5733-54.6285,51.3704c-3.2411,20.7216,5.1693,56.769,38.5449,100.3977l-33.2268,300.0173
	c-23.6301,3.9412-45.2782,33.7434-42.5281,68.4265c0.7447,9.3916-2.0186,18.7527-7.512,26.4064
	c-10.7382,14.961-21.2121,23.925-31.9309,28.1303c-16.3745,6.4243-37.6111-1.1889-46.5841-16.3177
	c-16.5944-27.9789-37.0458-47.5733-64.7059-51.4973c-5.4141-0.7681-10.5283-3.0172-14.5479-6.7245
	c-23.3314-21.5181-31.5841-37.1821-20.4253-45.3097c4.6695-3.4012,10.8643-3.7862,16.2004-1.5728
	c45.8247,19.0085,80.9653,10.0062,106.8481-23.2687c2.3091-2.9686,5.0283-5.6074,8.0573-7.837
	c26.3207-19.3739,32.6655-49.8589,24.4903-88.4204c-2.3493-11.0816-1.6348-22.5766,2.1259-33.2621
	c1.7708-5.0311-0.1295-8.481-4.454-10.8864c-3.2958-1.8333-6.4689-3.8791-9.303-6.3672l-24.333-21.3628
	c-2.7466-2.4113-4.3378-5.9034-4.2586-9.5574c0.0859-3.965-1.6872-7.4886-4.7768-10.6998c-0.3593-0.3734-0.713-0.7627-1.0334-1.1699
	c-9.675-12.2924-19.2501-23.3543-28.6283-31.9924c-5.2838-4.8667-5.4185-13.3053-0.1931-18.2346
	c4.4727-4.2193,9.1093-4.8699,13.9485-1.1007c5.1849,4.0385,5.817,11.7029,2.1796,17.1766
	c-3.1867,4.7956-0.1268,10.4504,10.1486,17.0977c4.4915,2.9057,10.3589,2.809,14.675-0.3513
	c7.6617-5.61,11.525-12.3503,9.8177-20.7483c-0.4763-2.3425-1.6765-4.4911-3.3093-6.237
	c-6.0236-6.4406-11.2917-10.6176-15.343-11.1479c-2.7933-0.3657-5.3744-1.778-7.3487-3.7876
	c-0.1548-0.1575-0.3068-0.3161-0.456-0.4754c-4.3235-4.6194-4.4782-11.8004-0.4886-16.711
	c10.7907-13.2816,21.702-10.1725,32.7149,6.7351c3.1206,4.7909,2.4602,11.0524-1.3228,15.3395
	c-5.3314,6.0419-4.8187,11.1567,7.1198,14.4588c16.5279,4.6396,28.7663,0.6323,37.291-10.8609
	c0.3792-0.5112,0.7314-1.0547,1.0444-1.6089c11.0384-19.5547,3.6292-41.4507-27.2767-66.3291
	c-0.5118-0.4121-1.0528-0.8083-1.6053-1.1639c-14.895-9.5835-31.7808-12.008-50.9318-6.2862
	c-4.0596,1.213-8.2039-1.5442-8.7673-5.7436c-4.7049-35.0721-21.2351-53.6735-52.1757-52.2039
	c-2.6718,0.127-5.35,0.0661-8.0159-0.1519c-12.6316-1.0328-23.2599,1.8816-30.8702,10.7418
	c-4.4864,5.2232-13.054,3.57-14.7774-3.0963c-0.4465-1.7272-0.6584-3.7039-0.6453-5.92c0.011-1.8488-0.4836-3.6825-1.5007-5.2265
	c-13.7452-20.8675-32.4937-21.5011-54.2455-9.9884c-6.9344,3.6703-15.2673,3.6608-22.0383-0.3029
	c-60.1987-35.2393-107.126-25.5281-139.8447,32.3095c-0.4171,0.7373-0.563,1.6047-0.442,2.4432
	c1.9854,13.7759-1.3489,24.7632-12.5989,31.6013c-0.7221,0.439-1.5888,0.6226-2.4289,0.5306
	c-8.6393-0.9464-16.3951-3.8495-23.4036-8.4177c-0.4512-0.2942-0.8522-0.6755-1.1664-1.113
	c-4.6555-6.4832-6.4976-12.9494-4.6356-19.3936c0.2239-0.7748,0.7426-1.44,1.4033-1.9024
	c3.4565-2.4195,7.6029-2.4115,12.3853-0.1664c0.9681,0.4544,2.1208,0.4247,3.0557-0.0948c3.6979-2.0549,4.7418-5.0957,4.0609-8.7774
	c-0.0973-0.5261-0.3196-1.0359-0.6085-1.4861c-8.8634-13.8128-18.1486-16.1326-27.9286-4.9838
	c-0.2083,0.2375-0.4037,0.5042-0.5677,0.7742c-9.4292,15.5225-6.6735,30.7731,8.6756,45.7425
	c1.7084,1.6664,1.3168,4.4532-0.7458,5.6532c-0.0688,0.0401-0.1362,0.0816-0.2024,0.1251
	c-2.1187,1.3866-1.6429,4.6214,0.6362,5.7248c3.5095,1.6989,6.3375,3.7324,8.5399,6.0731c2.3224,2.468,0.0487,6.491-3.2353,5.6538
	c-5.4187-1.3815-10.4285-1.5741-15.0145-0.5328c-2.7218,0.618-3.76,3.9261-1.9937,6.0873
	c5.1346,6.2827,11.5962,12.3682,19.0015,18.3135c2.5255,2.0273,1.6389,6.0437-1.4894,6.8817
	c-34.3658,9.2052-52.5807,31.8759-47.1116,74.2929c0.0403,0.3122,0.0488,0.6359,0.0251,0.9498
	c-2.1162,28.0165,6.7097,46.8008,36.7023,47.7274c3.533,0.1092,6.9115,1.5365,9.4803,3.9644
	c12.8981,12.1905,11.04,25.2514-4.3569,39.1107c-5.08,4.5727-7.6128,11.3745-6.7865,18.1593
	c3.9292,32.2572,16.9669,52.0694,47.5558,47.9007c2.3251-0.317,4.717,0.0264,6.8323,1.0423
	c6.1849,2.9707,7.6312,7.4516,0.0542,14.808c-24.4214,21.4643-19.3446,38.7206,9.8185,52.5411
	c1.9686,0.9329,3.8683,2.0345,5.6074,3.3466c15.3262,11.5635,34.9767,16.3331,56.6511,17.9227
	c3.8672,0.2836,7.6955,1.1153,11.2659,2.6278c9.4193,3.9908,14.0568,10.177,12.0308,19.4231
	c-0.5436,2.4805-0.9092,5.0095-1.0365,7.5457c-0.588,11.7197-5.3837,20.6474-15.4328,26.0894
	c-5.6076,3.0367-12.5286,2.155-17.416-1.9414c-27.4581-23.0129-54.1467-49.3239-80.2202-78.2724
	c-8.7279-9.6903-20.0159-16.7009-32.5234-20.3945c-42.9745-12.6905-84.3498-19.856-124.3221-22.1749
	c-1.784-0.1035-3.57-0.1005-5.3553-0.0244c-82.7144,3.525-161.3995-19.7466-234.2423-81.8681
	c-2.0413-1.7408-3.9915-3.6063-5.8165-5.5727c-60.4227-65.1085-83.523-139.3902-83.667-219.3142
	c-0.0036-1.9493-2.4232-2.8826-3.6945-1.4048c-37.6873,43.8099-19.7672,103.2821,19.424,168.7458
	c1.803,3.0115-0.7963,6.7451-4.2406,6.0687c-5.4854-1.0776-10.3143-1.4858-14.5771-1.3176
	c-2.7066,0.1069-4.5716,2.7357-3.7109,5.304c15.4167,46.0031,51.9627,91.7841,103.0302,137.4124
	c3.9236,3.5057,4.0224,9.8104-0.0961,13.0846c-0.0472,0.0375-0.0947,0.0747-0.1428,0.1117
	c-3.2099,2.4713-7.7722,2.1691-10.8229-0.496l-57.8198-50.5124c-4.9688-4.341-12.5312,0.4191-10.7962,6.7849
	c18.5441,68.0409,59.4737,122.9836,126.781,162.492c21.9669,13.2583,42.6002,22.5501,61.0896,25.4669
	c1.9556,0.3085,3.7847,1.1649,5.3374,2.3931c8.4643,6.6949,9.5569,11.9714,1.4255,15.4728
	c-2.1089,0.9081-4.4482,1.2039-6.7065,0.7881c-17.9521-3.3054-36.3031-9.6605-54.9647-18.3906
	c-6.7048-3.1365-13.599,3.9082-10.3781,10.5729c32.783,67.8314,92.8374,95.9543,168.5349,101.3002
	c2.0013,0.1412,2.3592,2.9222,0.4531,3.5486l-44.4965,14.6221c-3.5926,1.1806-4.4514,5.8647-1.5291,8.2649
	c49.7328,40.8474,107.6346,35.1033,169.2167,8.3692c1.0346-0.4492,2.209,0.131,2.5147,1.2168
	c3.5996,12.7882-0.4591,24.982-11.8403,36.6075c-1.2294,1.2559-0.1607,3.3632,1.5806,3.1264
	c21.406-2.9119,42.317-10.0977,62.7833-21.121c3.538-1.9056,7.942-1.7493,11.1707,0.6433c0.0245,0.0179,0.0488,0.0362,0.0731,0.0544
	c0.264,0.1984,0.5154,0.4086,0.7542,0.6293c3.9722,3.672,3.4836,10.0903-0.6771,13.5471
	c-54.2493,45.0722-75.715,93.1322-38.5071,146.5404c41.4412,48.0428,103.3677,105.0758,171.3776,164.7787
	c1.9722,1.7314,1.0873,4.9896-1.4931,5.4681c-29.1074,5.3973-58.5148,3.6016-88.312-7.553
	c-3.8594-1.4449-7.114-4.1437-9.3726-7.5906c-13.0687-19.9456-26.6234-32.6533-42.848-43.8137
	c-10.2573-7.0557-23.7439-7.4697-34.4692-1.1484c-16.2993,9.6067-27.0429,24.13-35.6156,37.2097
	c-4.5044,6.8724-12.5461,10.5159-20.6962,9.4668c-41.1483-5.2975-79.1432-3.1705-108.028,19.1906
	c-9.9312,11.2888-11.551,19.8317-4.1005,25.3782c3.775,2.8102,8.5938,3.8788,13.2573,3.2451
	c35.4939-4.8228,70.8792-2.4445,106.1348,8.5316c1.2461,0.3879,2.4462,0.9091,3.5985,1.5216
	c27.7473,14.7491,61.6884,22.3837,99.9257,25.0835c52.6256-0.8853,103.7515,8.0576,153.4214,26.543
	c17.5138,5.1466,12.9238,17.123-10.3251,34.8646c-3.229,2.4641-6.0295,5.4545-8.312,8.8141
	c-7.6012,11.189-15.1557,22.7238-19.2847,59.6005c-0.3162,2.8239-0.3134,5.6896,0.0066,8.5129
	c2.1382,18.865-1.8254,35.4769-14.478,48.8806c-6.1683,6.5342-14.5873,10.4088-23.5126,11.4487
	c-10.2116,1.1897-18.8651,3.855-26.0303,7.9294c-16.1936,9.2084-22.7897,29.0797-16.2797,46.5336
	c3.4386,9.2192,8.8597,17.8716,15.8397,26.0782c5.9386,6.9824,8.2653,16.3209,6.4417,25.3041
	c-4.5576,22.4528-10.6753,43.363-19.2916,61.8026c-3.8395,8.2174-4.1797,17.6617-0.7441,26.0563
	c8.0584,19.6893,17.0588,37.5363,27.229,53.0951C636.7177,1637.4891,644.1037,1636.3771,645.6677,1630.8412z M1029.0159,629.7876
	l2.4586,27.3437c-15.368-2.5883-29.8563-7.8882-30.9421-15.9589C999.5638,633.973,1012.9542,630.3323,1029.0159,629.7876z
	 M1272.6316,571.5198l-169.7704,0.0582c-0.543,0.0002-1.0562,0.1106-1.5425,0.2779c-6.6018-34.9673-40.0583-79.1553-70.4625-83.9424
	c-0.1311-0.0207-0.2625-0.0262-0.3937-0.0451l32.0464-289.3572c1.8698,2.2371,3.7808,4.4853,5.7821,6.7563
	c16.5173,18.7425,71.6624,73.9114,128.3484,127.0485C1264.9171,396.3191,1287.417,507.5423,1272.6316,571.5198z M1158.0092,654.0479
	c-32.9442-4.6421-66.8674,4.2541-103.4574,4.9273c-4.0291,0.0741-8.6191-0.1196-13.3788-0.5742l-2.5702-28.5814
	c7.0856,0.2739,14.2433,1.0871,20.5762,2.4158c30.5084,1.3091,40.8317-14.7051,43.1869-45.0239
	c0.1536-1.9766,0.1582-4.0312,0.0627-6.1315c0.146,0.0134,0.287,0.0439,0.4364,0.0438l167.1744-0.0573
	c-3.5282,11.1445-8.3716,20.4282-14.4874,27.1874c-5.6185,6.2097-12.1261,4.7924-20.2526,5.8469
	c-12.6859,1.6462-19.8304,14.184-15.9171,22.9965c5.006,11.2734,5.9498,23.0954-10.0826,25.2862
	C1196.4283,664.1421,1158.0092,654.0479,1158.0092,654.0479z M1087.0544,1066.7203l-34.6248-323.7784
	c3.0315,0.3149,6.0359,0.8666,8.9818,1.6673c49.1844,13.3692,106.6569,6.6277,169.108-12.1948
	c8.5364-2.5728,17.8243-1.0892,24.986,4.2211c52.7174,39.0898,44.0222,135.5957-17.6115,195.0432
	C1186.4125,981.3348,1125.4338,1025.2733,1087.0544,1066.7203z"/>
</svg>
