<?xml version="1.0" encoding="utf-8"?>

<!DOCTYPE svg PUBLIC "-//W3C//DTD SVG 1.1//EN" "http://www.w3.org/Graphics/SVG/1.1/DTD/svg11.dtd">
<svg version="1.1" id="Layer_1" xmlns="http://www.w3.org/2000/svg" xmlns:xlink="http://www.w3.org/1999/xlink" x="0px" y="0px"
	 viewBox="0 0 1590.8513 1690.8999" enable-background="new 0 0 1590.8513 1690.8999" xml:space="preserve">
<path d="M323.327,45.4499c-34.768,7.7896,4.5451,131.4417,4.5451,131.4417s-22.9973-42.8297-32.041-81.5125
	c-30.077,13.7811,24.3442,154.9235,24.3442,154.9235s-33.6931-81.8708-44.734-109.0018
	c-14.7764,42.8828,45.424,165.042,45.424,165.042s-35.3851-62.536-48.1046-90.2907c-9.11,50.3606,28.9424,122.5971,28.9424,122.5971
	s-144.6987-82.0963-165.9577-139.5698c-20.1509,90.4102,95.3732,150.4647,95.3732,150.4647s-93.1505-27.9471-116.9706-60.9834
	c-15.3205,82.6073,124.455,120.0625,124.455,120.0625s-87.8158-6.1309-118.9146-39.1804
	c11.3991,90.2244,150.6969,93.469,150.6969,93.469s-58.3227,11.9897-108.8558,1.2806
	c5.9384,39.8306,148.6732,42.4249,148.6732,42.4249s-62.6156,22.168-96.2889,17.729
	c16.3423,38.6895,145.548,18.4855,145.548,18.4855s-61.209,25.2466-85.4006,33.5406
	c37.5415,17.7821,129.9223-1.1412,129.9223-1.1412s-62.4564,28.6306-84.8765,38.3444c33.9784,22.2078,138.256-3.9346,138.256-3.9346
	s-71.5332,54.4345-88.3333,56.2592c25.4523,7.1858,59.7625,1.0218,88.0613-7.1063c-11.0939,10.8352-18.167,23.3889-17.6428,37.7008
	c4.1337,55.1378,75.5276,71.8583,135.748,76.0385c1.546,32.313,5.5868,69.337-9.6143,78.6926
	c-46.4989,28.7964-82.6935,68.4081-84.538,131.1099c-85.0888,15.7252-150.6106,123.7449-163.8742,140.7973
	c-119.3128-0.5309-155.441,95.015-209.7428,83.4698c-29.5263-6.2371-48.9207-1.5261-57.1881,10.2844
	c-14.5575,20.8342-4.1403,43.5264,0.2455,66.8821c4.4654,23.7537,2.2891,31.0522-2.8796,70.4648
	c0.2919,8.7584,1.2673,30.588,3.3043,37.5548c0.4379,1.5261,1.9574,1.9906,3.0588,4.1802c1.2275,2.455-0.2256,3.7157,2.9394,7.6968
	c2.2228,2.7867,3.5233,1.5925,4.0872,0.1991c0.5043,1.5924,1.2938,5.4408,3.9147,8.0286c4.8702,4.8435,7.5441-0.1991,7.5441-0.1991
	s5.7062,27.6685,19.5935,16.5215c9.037-7.2987,3.3375-16.5878,4.4787-25.877c7.438-23.4883,14.3849-40.5405,15.785-53.5454
	c3.092-28.6637,28.5178-42.9955,44.9795-72.8535c19.0361-8.5593,116.6321-14.2655,134.3413-15.0618
	c17.7158-0.8625,44.4818,2.1233,56.1597,0.3318s32.041-8.3602,84.9893-32.3794c56.7369-25.8107,138.4883-86.2566,138.4883-86.2566
	s141.5271,100.6548,161.3661,119.5648c-121.0379,33.3083-102.4131,70.266-170.6553,110.7402
	c-51.7075,30.7207-64.5797,14.0664-76.6755,41.8013c-12.0958,27.7349,20.2172,62.0385,26.1955,87.2518
	c5.9716,25.2798-3.7688,68.0763,2.2825,90.7686c5.5403,20.7679,4.9896,14.4645,14.1262,30.7869
	c-0.3052,7.0332,0.8559,21.9623,13.7214,21.9623c7.292,0,9.9991-7.2987,9.3953-12.8722c1.8976-0.2654,4.6313,1.327,7.3451-1.526
	c2.5943-2.7867,2.9858-10.1517,2.9858-10.1517s1.9573,0.5972,6.7944-1.3934c4.8237-1.9242,6.0114-12.474,6.0114-12.474
	s1.9905,1.526,4.147-1.5261c1.4132-1.9906,0.8958-6.7014,1.5659-8.4929c0.6503-1.7915,1.8114-3.5829,2.0104-5.9716
	c0.3185-3.5166,0.4446-9.8864-0.4711-18.2466c-1.4995-13.8674,7.438-9.3556,5.5403-31.8486
	c-1.8977-22.4268,7.783-17.7821,13.8541-76.2375c14.4646-5.839,207.4006-82.6073,207.4006-82.6073s39.9434-20.3035,62.0385-55.0715
	c22.1613-34.7681,33.7064-62.5028,21.166-118.3042c-12.5403-55.8014-63.8962-116.6454-131.11-215.9067
	c49.4316-29.858,104.835-120.6265,88.8443-198.7882c15.7916-23.223,17.7158-70.9295,17.7158-70.9295l52.9482-4.1801l84.8632-28.0665
	c0,0,23.3557,3.981,51.754,3.5829s145.7072,301.1682,145.7072,301.1682c-0.5308,2.0568-2.7203,4.91-2.7203,4.91
	c-4.1802,9.9526-0.5309,19.4409,10.8153,21.5641c9.7535,1.7916,19.9716-5.6399,16.9196-15.8579
	c-2.3224-7.8294-6.5024-6.3698-6.7014-2.5877c-0.3318,5.0427-6.2371,8.1612-9.621,3.7821
	c-2.0569-2.5877-1.1942-5.6399,0.7299-9.6873c12.4077-25.877,48.3037-70.9295,72.8536-93.0908
	c58.5217-52.8156,108.0861-120.5601,91.631-214.1817c-7.2987-41.5889-16.3888-54.1824-25.2135-63.5247
	c3.4503-2.2626,4.91-4.8171,3.7821-11.4456c-0.8627-5.4276-8.6257-4.9962-8.6257-4.9962s10.1517-1.7782,9.4882-11.7708
	c-0.7299-9.9924-10.7488-9.2228-10.7488-9.2228s10.6162-2.7735,7.8293-15.4665c-1.1279-5.1754-6.1042-6.5223-10.5498-6.6285
	c45.3179-9.1963,161.897-32.7377,161.897-32.7377s-6.7679,7.7697,1.9241,13.8408c11.8768,8.2143,20.6353-18.7508,42.2657-27.8608
	c-25.4789,1.7119-39.5454-18.4921-48.3037-7.5574c-5.2417,6.5157,2.6541,14.783,2.6541,14.783L1342.8,564.6286
	c3.5166-2.3024,6.5023-5.8721,5.4408-11.1536c-2.3224-11.4588-19.3745-9.6607-27.2704-8.1081
	c-0.5308-32.6979,20.2372-32.3595,5.9716-103.561c-17.8484-88.977-107.3563-100.4225-166.2097-149.5224
	c-33.7728-28.2391-46.9104-45.5501-54.408-55.2639c-7.5641-9.7005,3.8484-11.4191,7.564-4.4389
	c3.7157,6.9337,6.7678,6.237,5.1754-5.1356c-1.526-10.5963-14.7963-14.9755-22.6921-8.7783
	c-10.3507,8.1612-6.7014,19.2817,2.5878,27.2239l-62.1047,324.8422c-11.9432,3.9877-23.8201,9.1498-35.3652,15.785
	c-17.8485-15.3271-122.9488-23.8997-122.9488-23.8997s-29.1282-8.2474-53.28-23.8931
	c-18.5784-12.0095-16.7869-20.3234-16.057-33.3415c0.5972-10.9147,11.4788-30.6543,11.4788-30.6543s17.9148-2.7469,39.0809-3.4237
	c21.0997-0.6701,33.3083-12.5205,35.2325-28.3784c1.0616-9.2759-1.1279-2.8398,1.327-12.2882
	c2.5214-9.4352,11.6115-13.5755,12.2086-17.2381c1.5925-10.2247-7.8294-17.0921-13.3365-20.6817
	c7.4977,2.7138,17.0523,2.5479,20.2371-2.727c4.3128-7.219-4.3792-12.9451-0.7962-26.8722
	c0.6636-2.5346,0.8626-3.8019,5.2417-6.2636c6.7015-3.709,24.4836-7.3849,22.9576-19.7527
	c-1.5925-13.2172-20.2371-10.0854-24.4172-36.4733c-5.1754-32.0344-0.5308-34.7415,4.3792-43.9179
	c4.9764-9.1631,4.4456-45.006-14.2654-81.8243c47.7728-56.4981,18.1138-104.2112,18.1138-104.2112s8.493,43.5994-50.9576,62.4564
	c18.7774-25.9566-15.9243-39.0145-15.9243-39.0145s-2.5877,29.4135-15.3271,24.8618
	c-12.6732-4.5583-51.2896-40.1226-67.4792-30.4552c-17.6495-10.1318-30.986,1.3867-38.8154,3.855
	c-13.3366-16.7271-30.3889-16.694-38.152-17.0854c-35.2856-1.7517-41.8013,23.8002-66.7427,26.6599
	c-7.0067,0.8028-6.3299-26.0229-6.3299-26.0229s-7.6437,9.9129-7.9688,33.514c-33.514,2.7337-46.751,32.4059-49.1397,36.9775
	c31.5765-14.0333,35.75-12.056,35.75-12.056s-15.8646,18.7177-28.1661,29.7652c-12.2882,11.0408-4.2996,37.3955-12.2551,44.5018
	c-9.183,8.1877,14.5243,42.6638,11.6844,59.7028c-2.8266,17.039-9.6342,32.1604,1.3801,42.4781
	c11.0076,10.3176-5.3546,41.861-28.2391,38.1387c21.2059,22.2476,45.4373,1.0948,43.6193,9.2096
	c-1.818,8.1081,0.6237,9.1034-4.1735,28.5974c-2.1962,8.8977-11.711,25.5585-26.8324,26.3879
	c36.4467,13.4029,46.4856-10.9745,49.7103-19.421c9.9527,9.5612,11.7773,16.6143,6.5356,47.8525
	c25.2665-14.1593,17.1983-42.8762,17.1983-42.8762s4.2996,4.4588,8.075,17.2049c11.3527,38.3378-50.2345,84.0471-77.4717,81.7911
	c-27.2173-2.2692-46.9833-61.8194-47.1956-72.0442c-0.2123-10.2314,29.6855-64.5597-4.8835-104.7022
	c-21.7764-25.2865-95.7912-67.3067-120.235-98.6576C369.866,190.9519,336.8961,88.499,323.3273,45.4503L323.327,45.4499z
	 M1101.0295,246.9785c2.1896,1.5393,16.7206,21.2125,55.2042,52.6829c35.8296,29.3339,130.181,72.0906,142.1243,146.3641
	c7.0996,43.9378-3.1185,61.1626-9.2228,81.612c-8.5592,4.0673-18.6447,9.3688-28.7301,10.8418
	c-19.3082,2.8-30.9197,25.8305-44.9198,26.441c-27.7347,1.2208-100.7211-17.384-171.916,3.7222L1101.0295,246.9785z
	 M1063.342,694.2387c7.0333-0.2654,14.1992-0.8625,21.3651-1.7914c39.3463-5.3745,128.1243-52.7692,144.4467-54.2621
	c16.256-1.4929,15.9907,3.3906,36.2278,3.6228c20.3035,0.2256,40.8724-1.4664,40.8724-1.4664s4.6445-0.7233,11.0143-2.0701
	c10.019,13.4229,20.7679,30.6808,30.787,69.7682c21.7632,84.1997-60.3796,170.5226-96.0765,211.7931
	c-28.1329,32.5784-48.4364,74.5788-48.4364,74.5788c-46.1805-98.9297-92.4274-197.8593-138.6077-296.7889L1063.342,694.2387z"/>
</svg>
