<?xml version="1.0" encoding="utf-8"?>

<!DOCTYPE svg PUBLIC "-//W3C//DTD SVG 1.1//EN" "http://www.w3.org/Graphics/SVG/1.1/DTD/svg11.dtd">
<svg version="1.1" id="Layer_1" xmlns="http://www.w3.org/2000/svg" xmlns:xlink="http://www.w3.org/1999/xlink" x="0px" y="0px"
	 viewBox="33 117.016 1854 1685.969" enable-background="new 33 117.016 1854 1685.969" xml:space="preserve">
<path d="M1567.333,169.3c-0.73-1.67,1.77-1.45,2.79-1.81c7.82-1.39,13.52,5.53,20.81,6.75c3.75,0.55,7.06-1.73,9.7-4.14
	c-0.41,4.1,0.49,8.8,4.27,11.12c5.48,3.47,12.53,5.05,16,11.09c-3.78,1.44-8.66,3.1-9.28,7.75c-0.67,5.54,0.32,11.2-1.05,16.68
	c-1.43,0.47-2.93,0.98-4.26,0.03c-5.93-2.77-9.83-8.65-15.85-11.21c-3.66-0.91-3.62,4.02-3.73,6.41
	c16.76,8.9,32.33,19.95,49.65,27.81c11.76,5.39,24.63,9.03,37.67,8.49c7.77-0.67,16.21-2.62,21.61-8.7
	c4.7-5.29,4.95-13.22,2.53-19.6c-3.74-10.28-12.29-19.24-23.09-21.92c1.08-1.58,3.17-1.61,4.85-2.2c7.85-2.19,16.87-3.32,24.22,1
	c6.23,3.71,9.01,11.15,9.34,18.1c0.31,8.49-2.01,17.03-6.19,24.4c-3.23,5.36-7.68,10.49-13.85,12.39
	c17.6,1.46,35.51-5.03,48.95-16.34c14.06-11.89,23.4-28.73,27.86-46.45c0.56-1.46,0.16-3.67,2.18-4.14
	c-0.64,12.12-3.56,24.36-9.99,34.77c-2.32,4.13-5.82,7.36-8.65,11.1c15.45,10.95,22.44,30.14,24.35,48.34
	c5.6-4.45,8.35-11.31,10-18.07c1.83-6.98,2.46-14.36,5.76-20.89c10.38,9.96,16.57,24.46,16.58,38.88
	c-0.01,8.06-2.53,16.06-7.07,22.71c3.35,2.02,6.67,4.71,10.77,4.83c4.02-3.17,7.45-7.65,12.74-8.75c2.51-0.43,4.39,2.05,4.59,4.34
	c0.79,6.93-1.57,13.76-4.34,20c-3.03,6.2-6.99,12.66-13.55,15.59c-4.87,2.39-9.94,4.86-15.48,4.96c1.14,7.88,0.75,16.22-3.12,23.35
	c-8.26,15.69-26.31,25.68-43.98,24.6c1.85-8.4,8.34-14.97,9.89-23.48c0.8-2.71,0.09-5.47-0.6-8.1c-4.94,3.72-10.08,7.3-15.94,9.42
	c-15.37,5.94-32.44,4.41-48.12,0.59c-0.16-1.27,1.24-1.88,1.95-2.72c6.13-5.56,13.14-10.22,18.37-16.71
	c2.67-3.39,5.03-7.26,5.48-11.64c-27.02-1.54-55.27-4.54-78.85-18.98c7.11,25.05,7.15,51.26,8.83,77.03c0.41,13.59,9,25.38,9.29,39
	c0.19,3.72-1.36,7.27-1.15,10.99c0.14,2.72,0.42,5.44,0.39,8.17c-3.08-10.59-5.81-21.33-10.09-31.52c-1.28-2.49-2.38-6.16-5.71-6.27
	c-2.43,4.26-2.51,9.21-3.52,13.87c-3.44,9.75-7.89,19.15-13.11,28.07c-2.92,4.62-5.53,9.56-9.3,13.53
	c-161.47,113.03-311.21,241.52-467.24,361.72c-3.2,2.87-7.36,4.77-9.86,8.34c64.25,22.72,130.95,39.91,191.45,72.04
	c-8.14-2.27-15.9-5.72-23.87-8.47c-122.02-45.01-246.42-83.21-368.32-128.53c-16.99-6.2-33.79-12.92-50.72-19.25
	c-14.42-1.82-28.82-5.04-43.45-4c79.32,28.85,158.91,56.96,238.5,85.05c114.02,40.06,228.25,79.53,342.75,118.21
	c4.2,1.1,8.27,3.81,12.77,2.87c5.11-0.47,10.31-0.25,15.29-1.74c-18.89-9.74-39.54-15.24-59.76-21.46
	c-16.73-4.96-33.38-10.37-49.26-17.69c0.17-0.5,0.5-1.5,0.67-2c3.63-1.18,7.46-1.35,11.24-0.85c32.69,1.99,63.69-10.98,95.93-13.63
	c12.68-1.14,25.39,0.33,37.94,2.13c21.34,3.71,42.35,11.98,58.94,26.16c-18.31-1.99-32.49-16.59-50.94-18.07
	c-13.39-0.5-27.17-2.92-40.28,0.97c-7,2.51-14.56,2.84-21.47,5.62c-7.73,2.64-14.76,7.92-18.17,15.5c2,0.58,4.1,0.22,6.16,0.12
	c50.42-1.57,101.43-0.86,150.86,10.25c3.45,0.81,6.92,1.56,10.28,2.74c-9.24,3.05-19.17,2.95-28.78,2.38
	c-12.15-1.44-24.18-4.36-36.48-4.09c-13.46-0.43-28.06,2.31-38.18,11.78c9.99,3.35,20.67,3.89,31.13,3.4
	c13.67-0.99,27.28-2.81,40.99-3.21c10.54-2.58,21.59-1.15,31.74,2.39c19.57,6.67,37,18.73,57.28,23.48
	c15.25,6.71,29.44,15.62,44.63,22.48c14.19,8.94,30.86,13.99,43.36,25.53c-7.94-1.31-15.3-4.85-22.86-7.44
	c-24.5-9.22-48.74-19.97-74.74-24.25c-19.95-3.48-41.91-1.32-58.66,10.92c2.77,4.21,6.98,7.1,10.94,10.1
	c3.28,2.38,6.07,5.42,9.65,7.39c17.39,10.29,35.41,19.63,54.31,26.82c24.87,9.23,51.32,13.64,75.74,24.17
	c-9.92-0.73-19.65-2.99-29.37-4.94c-27.48-5.91-54.51-13.67-81.85-20.18c-8.31-1.84-16.57-4-25.01-5.16
	c-23.76-3.87-47.83-7.06-70.7-14.86c-17.15-5.86-33.59-14.65-46.45-27.58c-3.63-3.39-6.48-7.49-9.92-11.05
	c-1.48,3.91-0.56,8.14,1.32,11.75c4.66,9.42,12.04,17.41,20.84,23.12c11.38,7.82,25.92,8.14,37.94,14.47
	c-14.58,3.79-28.88-3.03-42.08-8.46c-5.84-1.88-10.35-6.14-15.21-9.66c-24.55-18.54-47.58-40-63.53-66.58
	c-94.93-34.19-190.08-67.75-285.36-100.94c-178.41,140.63-359.44,278.01-534.25,423.15c-2.24,2.06-5.78,3.62-5.64,7.19
	c-2.56,19.95,1.3,41.3,13,57.93c3.57,4.72,7.48,9.71,12.75,12.51c14.59-0.79,28.3-7.79,38.92-17.6
	c10.77-10.01,18.91-22.56,25.1-35.81c9.28-20.05,14.39-41.95,15.49-63.99c-0.41-3.25-2.69-6.2-1.57-9.6
	c5.94,2.14,10.25,7.24,13.29,12.59c4.31,7.94,6.17,17.02,6.44,26c0.57,14.96-2.26,30.19-8.94,43.64c-2.27,4.05-4.5,8.12-6.81,12.16
	c-10.22,16.09-25.94,28.44-43.64,35.36c-9.9,3.71-20.63,5.89-31.21,4.57c-10.45-1.16-20.6-6.12-27.42-14.22
	c-0.86-0.84-1.45-2.33-2.85-1.97l1.4,1.19c4.34,22.16,5.1,45.15,0.66,67.36c-7.04,36.18-25.61,68.96-47.59,98.1
	c-7.59,10.1-15.65,19.84-23.93,29.38c-0.32-13.62,9.63-25,10.27-38.43c-2.44-19.36,1.2-38.96,7.43-57.29
	c10.09-30.27,26.54-58.13,34.8-89.06c5.31-19.79,5.97-41.11,0.04-60.84c-4.31,4.38-7.2,9.91-11.4,14.4c-2,2.33-4.66,3.98-6.65,6.33
	c-25.3,31.25-48.02,64.64-67.27,99.95c-20.87,38.35-37.81,79.01-48.34,121.43c-13.37,53.62-16.12,110.77-1.62,164.46
	c5.44,0.25,8.07,6.55,13.5,6.9c12.9-0.35,24.2-8.86,30.97-19.41c4.16-6.6,7.44-14.09,7.82-21.96c-3.36-4.32-9.57-8.18-8.22-14.46
	c5.73-1.38,10.99,2.25,14.91,6.02c6.84,6.9,8.11,17.18,8.36,26.44c-0.18,8.13-0.05,16.67-3.68,24.17
	c-5.66,13.11-14.33,25.74-27.09,32.76c-9.59,5.45-22.35,4.92-31.21-1.71c-3.63-3.36-6.85-7.18-10-10.96
	c-14.51-43.44-19.94-89.59-18.99-135.26c1.29-42.6,7.73-85.11,19.59-126.06c-18.83,20.64-38.17,41.08-60.65,57.83
	c-0.87,0.53-1.77,1.03-2.69,1.48c-0.89-6.4,7.1-9.98,5.63-16.35c-22.66,22.04-49.77,39.32-78.81,51.71
	c-6.43,2.54-12.75,5.56-19.52,7.12c-0.55-4.75,6.26-7.98,3.64-12.64c-14.56,11.59-32.29,19.55-50.91,21.35
	c-9.82,0.78-20.59-0.58-28.36-7.16c-3.01-2.37-4.79-5.79-6.85-8.92c-19.06,0.56-38.54-2.74-55.51-11.75
	c-18.62-9.57-33.36-25.6-43.1-43.98c9.92-7.17,22.55-10.24,34.68-8.99c27.56,3.25,50.44,20.99,77.05,27.54
	c1.61,0.32,3.24,0.37,4.89,0.15c-3.72-5.93-10.33-9.22-14.4-14.89c-2.66-3.72-5.86-8.26-5.08-12.95
	c14.47-7.93,31.09-14.09,47.84-11.66c13.54,2.42,25.33,9.92,37.95,14.95c4.81,1.81,9.73,3.79,14.94,3.92
	c-12.25-4.65-23.26-11.92-34.76-18.08c-2.32-1.31-4.93-2.35-6.52-4.59c-4.87-6.41-12.06-10.32-17.91-15.69
	c9.28-1.53,16.54,5.71,25.07,7.8c19.34,4.25,39.52,4.5,58.98,0.88c4.72-1.07,9.48,0.99,14.22-0.03c-1.22-3.17-4.71-4.42-7.53-5.76
	c-10.47-3.78-22.24-2.42-32.49,1.47c1.13-6.2,3.56-13.03,9.85-15.65c8.18-6.61,18.82-8.35,28.91-9.98
	c19.86-0.52,38.04,12.38,58.11,9.04c15.23-8.86,28.86-20.31,41.78-32.25c27.39-26.07,49.53-57.17,68.19-89.93
	c21.84-38.38,39.19-79.1,55.49-120.07c2.79-7.61,6.39-14.96,8.61-22.74c0.97-21.02,0.19-42.64-6.89-62.67
	c-9.91,17.72-23.09,33.8-39.41,45.98c9.57,1.46,19.77,3.01,27.59,9.2c4.87,3.74,7.18,10.39,5.56,16.35
	c-3.98,14.07-13.61,26.23-25.86,34.09c-20.19,12.86-46.39,15.92-68.94,7.85c0.15-0.53,0.47-1.59,0.63-2.11
	c5.32-3,11.4-0.72,17.11-1.34c12.15-1.17,23.95-5.65,33.93-12.67c7.38-5.31,14.67-13.13,14.22-22.85
	c-0.45-5.85-3.92-10.99-8.13-14.85c-1.8-1.9-4.59-1.4-6.93-1.51c-12.5-0.02-24.05,6.14-33.39,14.05
	c-4.22,3.37-7.68,7.58-11.71,11.14c-19.89,8.02-42.28,11.34-59.51,24.99c3.32-18.36,16.18-34.31,32.49-42.99
	c12.79-6.92,28.05-8.41,42.14-5.22c3.78-0.5,7.24-2.48,11.01-3.17c3.89-0.55,6.41-3.85,9.12-6.35c2.18-2.31,4.55-5.87,2.77-9.05
	c-5.17-10.08-18.11-15.95-28.96-12.1c-1.42,0.4-2.75,0.15-4-0.77c5.51-7.17,15.11-7.47,23.03-10.2c6.23-2.01,13.46-1.56,19.02,2.02
	c6.76,5.35,5.68,15.22,2.99,22.44c15.25-8.26,28.66-21,34.82-37.5c8.41-22.02,5.48-46.16,2.26-68.91
	c-3.44-23.92-8.68-47.88-7.36-72.17c3.87,9.23,5.4,19.24,7.04,29.05c3.85,24.28,4.72,49.24,12.56,72.73
	c3.65,10.88,9.32,21.38,18.02,29.05c7.82,7.14,18.03,11.11,28.35,12.95c-9.09-64.16-31.5-125.38-44.2-188.77
	c-0.89-27.86,6.36-55.46,17.54-80.81c11.25-24.97,26.8-48.21,46.84-66.98c-2.81,13.48-7.03,26.94-6.27,40.88
	c0.46,8.99,3.47,18.56,10.8,24.31c0.02-18.28,3.08-36.9,11.54-53.27c8.33-16.74,21.92-30.6,38-40.01
	c9.03-5.13,19.65-5.56,29.47-8.29c9.31-2.29,17.89-6.92,25.77-12.25c-16.65,5.14-33.76,8.46-50.54,13.08
	c-17.45,4.73-34.76,11.7-48.5,23.75c-4.06,1.41-10.15,1.15-12.47-3.16c-1.34-5.55,2.59-10.62,7.3-13
	c5.13-3.17,11.33-2.71,17.01-3.97c16.01-3.05,31.43-8.49,47.13-12.77c25.71-10.75,53.54-15.13,79.31-25.68
	c12.4-5.1,24.38-11.81,33.92-21.35c6.57-6.75,12.03-14.72,15.36-23.56c0.86-5.34-2.61-10.05-4.47-14.81
	c-16.04,21.21-38.44,36.8-62.35,47.97c-45.24,21.17-95.43,29.37-140.1,51.92c-25.56,12.08-43.54,36.01-54.46,61.49
	c-16.33,38.24-20.09,80.14-24.83,121.01c-13.88,10.93-29.27,19.74-43.32,30.42c3.34-0.23,6.35-1.8,9.38-3.09
	c7.81-3.46,15.49-7.22,23.27-10.74c3.83-1.74,6.85-5.09,11.14-5.8c-0.41,5.65-3.92,10.44-7.11,14.89
	c-7.27,9.82-17.56,16.73-25.89,25.53c3.8-1.6,6.57-4.83,10.37-6.43c3.21-2.39,6.31-4.94,9.68-7.11c3.89-2.42,6.36-6.42,10.09-9.02
	c0.75,0.88,2.39,2.28,1.35,3.58c-7.09,10.63-18.16,17.64-29,23.95c-7.28,4.08-14.34,8.59-22.1,11.72
	c-6.96,2.82-13.71,6.13-20.17,9.96c-7.08,3.67-14.62,7.62-22.84,7.16c21.86-13.74,45.39-25.04,65.34-41.65
	c7.12-6.18,14.28-12.62,19.55-20.5c-5.1,0.96-10.02,2.68-14.98,4.15c-14.76,7.72-31.76,10.21-48.26,9.73
	c-8.26-0.02-16-3.11-24.04-4.57c-14.49-3.23-29.46-5.71-42.75-12.67c-12.44-6.39-22.39-17.8-26.35-31.26
	c9.75,0.01,17.82,6.47,27.2,8.24c-4.72-10.26-5.38-21.9-3.1-32.87c3.54-18.8,12.44-35.91,20.54-53.04
	c1.69,14.53,8.59,27.68,11.51,41.91c0.89-3.28,2.74-8.14,6.99-7.52c4.83,1.02,7.79,5.66,10,9.72c1.83,3.98,4.06,8.74,2.02,13.06
	c-4.85,11.18-7.62,23.98-4.23,35.98c2.48,9.53,9.69,17.71,18.93,21.22c12.42,4.81,26.46,2.23,38.2-3.32
	c4.71-1.96,7.88-6.12,11.64-9.38c6.38-5.91,13.5-11.18,21.72-14.21c5.21-13.92,3.24-29.07,6.21-43.43
	c-0.84-16.88,2.72-33.64,8.12-49.55c8.05-23.17,19.37-45.23,33.55-65.26c9.92-13.86,22.38-25.98,36.89-34.99
	c15.2-9.56,32.21-15.77,49.4-20.7c22.49-6.44,45.49-11.03,67.81-18.05c-10.19-9.93-25.51-9.95-37.85-15.79
	c-15.28-4.32-28.99-12.85-44.34-16.93c-5.21-1.3-12.12-2.14-15.76,2.75c-3.98,5.78-2.18,13.13-1.72,19.63
	c-5.26,1.7-9.56,8.89-15.62,5.99c-32.77-17.92-57.37-48.14-91.89-63.22c-3.95-1.85-8.19-2.96-12.13-4.81
	c-36.52-19.83-74.21-37.44-110.57-57.57c-22.95-12.8-45.56-26.4-66.45-42.38c38.01,10.8,75.85,23.12,111.19,41.01
	c1.27,0.76,2.78,0.62,4.21,0.64c0.49-1.35,0.99-2.69,1.46-4.04c4.09-2.77,8.23,1.04,11.83,2.82c20.9,10.74,44.69,12.81,67.35,17.63
	c16.43,3.38,33.19,7.87,47.02,17.77c7.89,5.72,14.6,13.16,19.16,21.79c1.95,4.9,8.25,6.14,12.95,5.66
	c5.12-1.83,5.02-8.17,5.47-12.65c5.24,6.87,10.19,14.93,18.72,18.03c43.25,17.69,87.68,32.28,131.58,48.22
	c11.4-6.1,22.25-13.47,31.26-22.82c8.71-8.55,15.65-18.67,21.9-29.1c2.24,2.72,1.97,6.46,3.61,9.46c0.35,0.07,1.03,0.22,1.38,0.3
	c4.54-10.8,6.77-22.63,13.09-32.63c2.81-4.36,6.47-8.36,11.11-10.77c8.03-2.65,16.64-2.24,24.89-3.82c3.27-0.65,6.58,0.04,9.82,0.55
	c16.8,1.93,34.09,0.02,49.85-6.21c20.37-7.91,37.95-21.46,53.89-36.15c27.51-25.14,51.18-54.46,81.05-76.99
	c6.5-5.02,13.57-9.22,20.54-13.52c3.34-5.16,6.08-10.75,8.24-16.5c2.46-10.8-0.79-21.99-5.31-31.8
	c-5.93-12.84-14.41-24.37-19.66-37.54c-3.41-8.64-5.2-18.31-2.73-27.44c2.06-10.27,9.69-18.36,18.22-23.91
	c11.86-7.89,25.97-11.91,37.18-20.87c6.89-5.35,11.81-13.16,13.59-21.71c7.62-1.12,15.32-3.39,21.38-8.32
	c7.71-6.04,12.34-15.22,14.64-24.59c9.38-3.17,19.54-5.76,26.86-12.87c1.17-1.29,3.04-2.63,2.5-4.65
	c-0.97-10.78-5.61-21.12-4.69-32.09c0.28-5.87,3.25-11.23,7.21-15.44c25.39-2.62,49.49,7.22,73.23,14.62
	c19.56,6.12,40.46,11.81,60.99,7.5c6.7-3.71,12.95-8.27,19.76-11.83c38.62-21.64,82.95-33.48,127.3-32.31
	c27.3,0.58,54.4,6.2,79.96,15.74c4.87-1.04,10.49-1.14,13.99-5.25c-1.05-1-1.93-2.31-3.43-2.6c-6.16-1.85-12.64-1.91-19.01-1.9
	c0.21-4.36,2.39-8.45,6.09-10.81c3.68-2.87,8.69-3.8,11.99-7.08C1573.823,171.39,1569.343,170.91,1567.333,169.3 M1578.303,184.4
	c-4.41-0.8-11.21-1.58-13.38,3.43c5.17,1.31,10.7,1.36,15.59,3.69c2.78,1.09,4.49,3.67,5.4,6.42c2.76-1.17,5.98-2.27,8.85-0.71
	c5.74,2.47,8.65,8.34,11.43,13.55c1.53,0.66,1.26-1.88,1.43-2.74c-0.62-4.57-5.41-6.9-7.14-10.99c0.45-0.77,0.91-1.53,1.4-2.29
	c3.66-1.56,7.67-2.04,11.39-3.5c0.14-0.51,0.42-1.52,0.57-2.02c-6.74-1.64-13.92-1.51-20.55,0.51c-1.27-4.53,3.62-6.74,4.72-10.65
	c-3.73,0.93-5.66,5.92-10.1,5.21c-3.37-2.11-3.35-6.85-6.31-9.45C1579.803,177.86,1582.013,182.72,1578.303,184.4 M1383.473,209.7
	c-7.49,7.89-15.54,15.61-25.4,20.48c-4.96,2.85-10.21,5.48-16.01,5.91c-24.18,4.02-48.38-2.6-71.41-9.41
	c-21.41-6.1-43.12-13.43-65.68-12.42c-3.13,4.62-5.55,10.1-4.59,15.81c1.98,12.65,13.16,22.1,13.32,35.27
	c2.88,0.51,5.78,0.92,8.67,1.45c-0.28,1.31,0.06,3.33-1.54,3.86c-2.8,1.49-6.1,0.69-8.93-0.24c-0.71-4.01-0.54-9.38-4.48-11.72
	c-3.73,0.14-6.32,3.49-8.96,5.74c-6.1,5.81-13.47,12.59-22.64,10.79c3.81,5.44,5.12,12.28,4.43,18.82
	c-1.28,11.68-6.29,22.5-8.51,33.98c-1.28,8.5-1.14,17.78,3.9,25.13c-8.17-4.52-12.19-13.33-16.24-21.27
	c-3.88-7.43-7.81-15.6-15.34-19.97c-3.46,4.35-2.73,10.38,0.09,14.86c2.99,6.36,9.4,11.51,9.36,19
	c-8.73-2.91-15.71-9.18-22.19-15.38c-16.11,3.65-31.36,11.31-43.8,22.19c-9.33,8.35-17.43,19.47-18.15,32.37
	c-0.92,11.65,4.76,22.76,12.47,31.13c2.83,2.86,4.35,6.63,6.2,10.14c2.75,5.37,5.38,10.81,7.83,16.34
	c31.97-10.34,60.24-31.19,80.43-57.95c-5.63-1.02-9.61-5.55-12.56-10.12c-1.92-3.18-0.3-6.78,0.94-9.85
	c1.51-0.45,3.42-1.55,4.83-0.21c2.86,2.22,5.52,5.44,9.45,5.51c4.85,0.53,8.37-3.48,11.11-6.89c5.26-7.04,8.92-15.09,13.34-22.65
	c3.51-5.93,7.24-12.15,13.27-15.85c0.33-14.38,1.97-29.92,11.32-41.54c3.31-3.49,6.76-8.06,12.01-8.23
	c9.39-0.7,18.67,1.88,27.37,5.21c4.49,1.63,8.7,4.27,13.57,4.67c7.79,1.51,15.92,2.8,22.93,6.71c1.69,0.53,1.28,3.96-0.76,3.23
	c-8.14-0.84-15.87-4.02-24.02-4.87c-7.98-1.69-16.42-2.24-24.29,0.3c-12.73,3.6-22.87,13.85-27.76,25.97
	c13.37-5.19,27.55-8.46,41.95-8.53c21.89-0.81,43.51,3.37,64.93,7.34c-9.97-12.53-23.19-23.17-28.76-38.63
	c1.44-0.38,3.06-0.65,4.33,0.44c6.16,4.52,9.67,12.12,16.67,15.58c-1.51-3.09-3.47-5.92-5.05-8.96
	c-5.71-10.77-9.52-22.39-14.65-33.42c8.4,7.51,15.41,16.54,24.54,23.22c3.47,2.27,7.33,4.88,11.66,4.62
	c13.27-9.93,29.97-14.71,46.46-14.56c-2.49,1.66-4.27,5.08-2.07,7.71c5.43,5.47,13,8.36,18.04,14.32
	c-1.51-11.49-7.39-22.5-16.18-30.06c-5.98-5.22-14.09-7.5-21.94-6.5c3.57-5.44,9.35-9.64,15.98-10.09
	c6.58-0.69,13.12,2.39,17.21,7.5c5.05-4.9,10.05-9.88,15.77-14.02c14.58-10.91,31.96-17.71,49.82-20.91
	c23.87-4.37,48.42-2.89,72.25,1.06c5.16,0.59,9.62,3.48,14.38,5.35c34.09,14.97,68.37,31.8,105.83,36.03
	c-13.4-5.16-26.44-11.18-39.71-16.66c-3.21-1.35-5.94-3.52-8.85-5.35c-28.19-18.14-60-30.72-93.06-36.35
	C1472.063,187.35,1425.223,192.27,1383.473,209.7 M1687.883,199.94c5.52,3.62,12.31,5.45,16.82,10.51c2.31,2.47,2.99,5.9,4.23,8.95
	c2.19-5.51-1.71-10.65-2.46-16.01c-3.56-1.96-7.36-3.62-11.42-4.17C1692.643,198.91,1689.903,198.14,1687.883,199.94
	 M1454.903,222.66c-17.95,5.74-34.75,15.81-47.22,30.06c-0.27,13.79,1.45,27.53,4.24,41.01c8.3,39.31,25.32,75.92,38.7,113.6
	c-6.83-1.6-13.49-4.37-18.84-8.98c-7.47-6.24-11.65-15.49-13.95-24.76c-5.26-21.45-2.78-43.88-7.22-65.44
	c-5.36-19.9-27.22-33.77-47.52-29.92c-6.68,1.17-12.75,4.56-17.86,8.92c1.43,12.79,9.19,23.78,17.85,32.87
	c3.48,3.99,8.65,6.09,11.85,10.38c-7.82-1.73-14.15-7.37-20.11-12.44c1.38,8.85,6.39,16.46,11.24,23.78
	c3.66,5.24,6.65,10.94,9.69,16.51c0.58,1.41-0.75,1.92-1.18,0.48c-0.62-1.46-1.01-3.02-1.92-4.32c-6.56-9.5-14.66-18.03-24.31-24.43
	c-14.8-10.07-32.52-15.34-50.3-16.46c-22.19-1.26-44.82,3.43-64.45,13.88c-11.59,11.14-20.46,24.79-28.76,38.47
	c-12.89,21.86-23.39,45.03-36.04,67.03c-8.57,14.88-18.29,29.26-30.42,41.5c-2.34,2.08-3.15,5.2-4.1,8.05
	c-1.69,5.62-3.21,11.55-2.37,17.46c1.65,5.44,6.06,9.47,10.3,13.01c5.9,4.48,12.57,8.36,19.94,9.7c3.14,0.26,7.22,0.79,9.34-2.13
	c2.19-3.13,0.42-7,0.87-10.45c1.17-1.73,2.74-3.16,4.05-4.79c0.75,3.72,1.92,7.82,5.09,10.22c1.93,0.86,4.49,0.67,6.07-0.85
	c2.82-2.29,4.72-5.47,6.29-8.7c4.71-9.84,6.05-21.12,4.47-31.87c-0.78-5.17-3.61-9.63-6.44-13.89c-0.3-10.07,3.32-20.01,8.94-28.28
	c8.51-12.23,20.89-22.11,35.11-26.77c-5.8,4.32-11.14,9.28-16.06,14.57c-2.03,2.54-5.2,5.21-4.28,8.85
	c2.75-0.01,5.46-0.51,8.11-1.27c-6.11,8.08-6.98,18.83-4.87,28.47c2.33,12.55,8.21,24.35,8.85,37.21c0.59,7.8-3.05,15.65-9.27,20.36
	c-6.79,4.87-13.73,9.75-21.68,12.55c-17.89,6.85-39.42,5.1-54.91-6.62c-4.25-2.9-7.34-7.08-11.18-10.42
	c-2.73,42.18,11.32,84.22,34.47,119.16c-3.15-0.89-6.15-2.21-8.95-3.86c-13.26-7.79-22.9-20.25-31.47-32.75
	c-1.9,5.5-3.94,11.06-7.52,15.72c-1.02,1.2-1.91,2.81-3.57,3.17c-26.24,6.49-53.68,4.57-80.01,10.55
	c-12.5,2.84-24.55,8.05-34.65,16.03c-9.24,5.53-18.78,10.57-28.07,16.03c-3.49,7.29-8.58,13.88-15.13,18.68
	c-21.18,15.57-49.59,13.89-71.77,27.36c-11.09,6.64-18.67,18.42-20.9,31.07c19.66,7.87,40.59,14,61.96,13.12
	c-1.23,3.75-5.37,5.18-8.83,6.07c-8.29,1.49-16.97,0.12-25.06,2.84c80.17,33.47,162.35,61.92,244.97,88.68
	c91.09-71.83,182.48-143.29,273.79-214.85c58.66-46.12,117.52-92,175.93-138.44c-10.7,0.15-21.68-2.3-30.56-8.46
	c-7.97-5.27-14.06-13.58-15.92-23.02c-1.98-8.95,0.07-18.37,4.12-26.45c0.59-1.36,1.62-2.77,1.03-4.32
	c-2.03-7.12-8.1-11.91-13.43-16.59c1.5-1.34,3.9-1.36,5.38,0.09c3.83,3.18,6.8,7.22,10.07,10.95c11.44,13.61,22.3,28.69,26.07,46.4
	c1.27,4.5,0.86,9.24,1.64,13.8c10.75,4.12,23.14,0.39,31.31-7.32c12.09-11.29,18.45-27.44,21.16-43.48
	c10.16-33.19,4.73-69.39-8.67-100.85c-5.51,11.64-8.51,24.42-15.25,35.49c-2.96,4.93-7.11,9.53-12.72,11.36
	c-5.36,1.73-10.97,0.01-15.88-2.24c-8.15-2.56-16.2-6.42-22.01-12.84c-4.88-4.66-10.94-9.34-11.55-16.62
	c14.01,7.81,30.02,14.51,46.38,11.72c9.38-3.26,18.33-9.92,21.77-19.55c2.79-7.59,1.67-16.01-1.17-23.4
	c-4.51-11.62-12.77-21.44-22.28-29.32c-11.16-9-24.81-15.74-39.35-16.15c-7.81-0.21-15.31,2.53-21.84,6.59
	c-12.43,0.17-23.56,7.87-30.49,17.81c-1.21-9.06,5.99-15.97,12.23-21.35c7.94-7.3,17.64-12.62,28.1-15.27
	c17.93-4.84,36.88-2.62,54.46,2.56c-6.21-7.53-13.52-14.14-21.59-19.62C1534.393,215.6,1491.883,210.94,1454.903,222.66
	 M1583.973,239.25c4.34,10.33,13.57,18.38,15.79,29.71c-0.08,0.97,0.41,3.94-1.23,3.46c-2.92-2.7-5.53-5.76-8.91-7.92
	c-9.1-6.54-20.63-8.72-31.66-8.3c-8.91-0.08-17.47,2.62-26.11,4.36c4.56,0.07,9.13,0.1,13.67,0.74
	c17.07,1.41,33.52,8.54,46.54,19.63c14.26,11.95,24.68,27.95,31.86,45c9.29,22.43,13.53,46.88,12.78,71.13
	c-0.23,19.49-4.46,38.81-11.6,56.91c15.07-23.11,17.77-51.57,17.24-78.48c2.91,2.78,3.19,6.92,3.98,10.64
	c2.83-11.15,1.59-22.93-0.44-34.11c-3.93-20.11-11.01-39.49-19.81-57.95c-8.53-17.64-18.8-34.55-31.52-49.5
	C1592.033,241.28,1587.743,240.32,1583.973,239.25 M1747.573,239.1c-3.48,3.31-7.11,6.48-11.06,9.21
	c-16.04,11.3-36.05,15.47-55.41,15.17c-21.15-0.38-41.94-5.15-62.17-11.04c9.61,19.25,15.22,40.1,22.57,60.22
	c22.48,15,53.33,16.33,77.26,3.85c-0.04-0.23-0.13-0.69-0.17-0.92c-4.41-4.33-9.3-8.17-14.23-11.9
	c-10.05-7.38-22.68-13.31-35.41-10.46c-2.17,0.35-2.9-1.96-2.99-3.67c13.98-2.54,26.75-9.22,38.51-16.97
	c1.98-1.19,3.93-2.98,6.43-2.82c10.44-0.34,20.61,3.45,29.34,8.97c1.66-8.6,6.13-16.3,8.16-24.79
	C1749.763,249.07,1749.593,243.78,1747.573,239.1 M1754.153,238.55c0.93,4.41,1.86,8.97,0.78,13.46
	c-1.51,9.81-6.82,18.87-6.63,28.95c-0.03,5.8,3.6,10.87,8.19,14.1c0.54-5.77-0.47-12.04,2.5-17.31c1.45-1.19,2.65,0.82,3.3,1.93
	c3.09,5.69,1.9,12.42,2.34,18.62c4.13-4.04,5.9-9.8,6.86-15.35c1.05-9.08,0.1-18.37-2.78-27.05c-0.92-2.68-3.54-4.21-5.01-6.54
	C1760.983,245.37,1758.333,241.16,1754.153,238.55 M1794.883,252.05c-0.87,10.95-4.98,21.38-10.33,30.88
	c-3.01,5.64-7.23,10.5-10.5,15.95c2.18-1.44,4.56-2.57,6.77-3.98c2.88-2.74,3.94-6.77,6.29-9.91c0.67-1.08,2-1.26,3.18-1.38
	c0.25,4.51-2.32,8.39-4.49,12.12c-1.89,3.12-5.18,5.38-5.96,9.1c17.93-0.66,31.44-21.13,25.62-37.96c-1.45-4.55-4.9-7.99-7.2-12.07
	C1797.523,253.43,1796.503,252.21,1794.883,252.05 M1711.773,276.85c-9.1,3.28-18.66,5.84-26.59,11.59
	c17.82,2.3,28.09,19.47,44.38,25.19c6.53,2.26,13.81,0.65,19.41-3.2c-5.32-7.99-15.47-9.31-23.5-13.21
	c-1.22-0.57-3.37-2.02-1.63-3.29c7.25-1.84,13.31,7.56,20.29,3.48c0.98,0.93,1.98,1.86,3.01,2.78c1.73-2.31,2.07-5.54,1.01-8.18
	c-4.06-3.73-8.53-7.01-13.06-10.12C1728.343,277.38,1719.833,274.27,1711.773,276.85 M1233.813,281.87
	c-5.66,6.77-9.18,15.25-10.58,23.93c5.68-7.29,12.94-13.49,21.26-17.57c6.42-3.29,13.75-3.95,20.84-3.4
	c-0.41-1.99-2.75-1.9-4.28-2.44c-6.27-1.46-12.44-3.99-18.97-3.8C1239.133,278.87,1235.673,279.26,1233.813,281.87 M1155.623,306.87
	c2.72,3.61,4.05,7.97,5.42,12.22c0.86-6.29-0.25-12.73,1.28-18.93C1160.343,302.63,1158.373,305.21,1155.623,306.87
	 M1789.143,310.08c4.71,1.55,8.31,5.16,10.73,9.39c-7.01,0.82-12.83-4.65-19.86-4.04c0.95,3.73,3.59,6.7,5.87,9.7
	c3.99,5.08,9.69,9.12,16.32,9.53c5.65-4.16,11.82-7.7,16.74-12.78c3.67-3.79,6.25-8.8,6.07-14.19c-3.84,2.45-8.43,3.96-13,3.37
	C1804.443,310.16,1796.733,308.05,1789.143,310.08 M1750.643,312.22c-1.65,2.76-3.67,5.53-6.86,6.58
	c-4.63,2.14-11.29,3.47-12.53,9.29c-2.82,11.59-7.94,23.04-16.7,31.37c-1.9,1.94-4.57,3.18-5.79,5.71
	c9.12,0.77,18.38,0.41,27.29-1.81c7.81-2.07,15.46-5.98,20.66-12.3c-0.55-2.6-0.36-5.18,1.08-7.47c1.88-3.05,0.57-6.63-0.35-9.75
	c-7.3,9.87-17.81,16.4-28.18,22.53c-1.13,0.23-2.25,0.38-3.35,0.44c1.88-3.4,5.71-5.01,8.57-7.48c7.41-5.7,15.8-11.41,19.24-20.52
	C1755.803,323.16,1753.883,317.01,1750.643,312.22 M1222.463,325.52c-6.51,6.18-12.1,13.21-18.33,19.66c-1.78,1.7-2.71,4-3.61,6.23
	c-17.85,42.14-52.11,78.25-95.51,94.07c8.63,2.28,17.72,0.66,26.03-2.14c11.51-3.9,22.29-9.72,33.99-13.11
	c13.73-26.2,24.83-53.97,42.05-78.2c11.63-16.3,27.04-30.73,46.18-37.51C1242.443,315.56,1230.203,317,1222.463,325.52
	 M1685.753,329.07c8.25,3.36,18.38,5.93,26.68,1.46c1.41-0.76,5.09-3.59,1.92-4.32C1704.953,328.38,1695.293,328.21,1685.753,329.07
	 M1778.413,328.17c4.24,9.97,5.89,22.26,0.15,31.99c-1.19-4.33,0.39-8.78-0.45-13.13c-0.89-5.33-2.56-10.78-6.09-14.96
	c-1.53-2.08-4.15-2.61-6.55-2.62c2.43,8.59,4.88,17.56,3.43,26.58c-0.72,9.05-4.07,17.56-7.91,25.68
	c8.39-1.69,17.06-4.22,23.49-10.18c5.67-5.59,9.47-13.47,9.21-21.54c0.5-6.15-6.93-8.5-8.41-13.93
	C1784.223,332.75,1782.563,328.14,1778.413,328.17 M1421.563,355.06c0.82,9.15,2.77,18.36,7.09,26.54
	c2.9,5.44,6.99,10.53,12.54,13.44c-1.01-3.4-3.86-5.74-5.46-8.82C1429.993,376.32,1426.353,365.41,1421.563,355.06 M1588.063,361.79
	c-7.92,2.36-16.36,2.14-24.44,0.86c6.04,6.71,16.23,8.35,24.71,6.31c5.78-1.36,10.35-6.1,11.48-11.93
	C1595.873,358.57,1592.183,360.75,1588.063,361.79 M1197.963,450.02c-2.59,20.98,9.08,41.25,4.54,62.22
	c3.98-2.91,6.48-7.49,7.67-12.21c2.25-9,0.3-18.41-2.48-27.07c-0.86-2.94-2.68-5.7-2.43-8.86c0.54-11.39-1.45-23.21,2.63-34.16
	C1202.693,435.46,1198.903,442.42,1197.963,450.02 M1550.393,433.26c-1.61,1.5-4.76,2.27-4.61,4.91
	c-0.09,7.96-1.05,16.16,1.29,23.91c1.17,4.22,3.91,8.01,7.85,10.04c-0.57-5.02-3.81-9.07-5.72-13.59
	c-1.95-4.72-3.3-10.12-1.75-15.15c0.24-1.1,0.91-1.46,2.01-1.07c3.51,6.56,4.78,13.98,7.43,20.88c1.91,5.13,5.13,10.25,10.51,12.24
	c1.72-12.16-3.2-23.83-7.87-34.76C1555.613,439.34,1553.793,435.32,1550.393,433.26 M1209.023,455.99
	c0.9,10.08,4.61,19.59,7.66,29.16c1.56-2.09,2.76-4.58,1.9-7.24c-2.43-12.59-4.63-25.22-6.05-37.97
	C1209.873,444.81,1208.353,450.42,1209.023,455.99 M1100.563,454.11c3.15,15.4-5.16,30.21-14.95,41.45
	c-5.02,6.31-11.34,11.47-16.6,17.52c-4.69,14.47-5.81,30.28-1.62,45.03c1.7-21.32,10.05-42.93,26.47-57.19
	c3.59-3.7,8.26-7.42,13.79-6.19c0.08,16.89,1.09,34,5.91,50.29c3.29,11.62,7.26,23.09,12.27,34.09c4.29,8.05,8.53,16.74,16.12,22.22
	c-6.48-21.44-13.53-42.89-16.33-65.21c-2.93-21.63-2.09-44.5,7.12-64.62c1.45-2.54,4.45-3.8,5.79-6.44
	c-0.12-1.92-2.51-1.2-3.77-1.08c-5.74,1.62-11.85,3.5-17.8,1.99c-1.17-0.06-2.64-1.37-1.4-2.44c4.87-3.52,11.69-2.67,16.51-6.38
	c3.69-2.78,8.23-4.64,10.83-8.67C1129.263,452.31,1114.793,460.04,1100.563,454.11 M1214.493,499.69c-1.2,4.07-2.62,8.08-3.45,12.24
	c5.88-3.3,10.84-8.55,12.98-15.03c1.39-4.28,0.91-8.98-1.04-12.99C1218.323,487.97,1216.293,493.99,1214.493,499.69 M1077.543,539.2
	c-1.64,9.58-0.28,19.4,2.16,28.73c3.07,11.12,8.17,21.88,15.92,30.52c-7.74-0.61-12.88-7.15-17.18-12.9
	c-7.04-8.83-11.43-19.36-15.81-29.67c-2.34,7.1-0.02,14.63,2.42,21.37c3,8.38,8.01,16.02,9.98,24.76
	c-22.06-15.86-33.42-43.1-35.7-69.54c-7.32,4.84-14.16,10.37-21.27,15.51c-2.49,1.84-5.48,3.24-7.06,6.04
	c-14.65,22.6-34.94,41.52-58.52,54.53c-25.93,14.45-55.8,21.51-85.43,20.72c-3.37-0.14-6.88-1.1-10.07,0.45
	c-5.79,2.35-12.21,4.08-17.08,8.07c-3.53,8.15-9.34,15.37-11.12,24.22c-0.23,2.33-0.68,5.02,0.67,7.1
	c7.13,5.98,17.44,6.86,26.1,4.17c4.93-1.68,10.61-1.46,14.89-4.81c3.6-2.56,4.64-7.62,2.95-11.59c-2.47-6.32-9.21-11.89-16.31-10.32
	c-4.85,1.52-8.19,6.33-9,11.21c5.09-1.19,10.23-6.22,15.53-2.99c3.95,3.61-0.07,10.12-4.47,11.16c-4.32,0.81-8.97,1.73-13.23,0.16
	c-2.55-0.85-4.36-3.38-4.35-6.06c-0.18-5.15,2.73-9.81,5.97-13.58c4.41-4.94,10.73-8.92,17.57-8.52
	c9.96,1.16,16.87,11.49,16.74,21.07c0.16,9.82-7.11,17.89-14.95,22.86c-9.81,6-21.98,9.46-33.36,6.58
	c-2.71,8.22-1.38,17.43,2.21,25.18c2.45,3.23,6.67,4.36,10.48,5.08c4.75-10.5,10.27-20.82,18.11-29.36
	c7.93-8.91,18.75-15.34,30.62-17.16c-2.25-9.62-7.61-19.39-4.37-29.46c4.76,12.11,9.93,25.19,20.91,33.03
	c3.31,1.98,7.14,4.73,11.18,3.35c8.89-2.58,17.21-7.2,24.12-13.35c3.17-2.98,6.82-6.9,5.79-11.64c-1.01-3.08-4.28-4.47-6.86-5.96
	c-0.46-2.55,0.01-5.06,1.15-7.36c9-4.08,18.64,0.96,27.94-0.21c1-4.15-2.3-7.02-3.67-10.49c1.88-1.74,3.12-4.1,4.92-5.85
	c7.08,2.77,15.28,3.85,22.42,0.59c10.86-4.87,18.38-14.5,27.26-22.06c6.06-5.27,13.17-9.91,21.29-10.96
	c3.55,0.53,5.87,3.84,9.12,5.2c0.1,0.76,0.22,1.52,0.34,2.3c-5.3,3.35-12.19,2.9-17.22,6.79c-1.58,0.95-1.99,2.79-2.39,4.45
	c22.2-3.65,45-1.06,67.03-5.96c3.11-0.75,6.77-1.09,8.79-3.93c4.82-5.82,2.61-14.31-1.14-20.09c-2.67-3.66-6.32-7.98-11.36-7.41
	c-3.12-0.22-5.25,2.56-6.53,5.04c0.91,2.57,3.34,4.71,5.88,5.75c0.8-2.95-0.49-7.26,2.37-9.23c2.5,0.44,5.36,1.34,6.48,3.88
	c0.75,2.49,0.6,5.59-1.41,7.47c-2.84,3.02-7.46,2.66-11.19,2.06c-5.54-0.91-7.58-7.25-7.66-12.13c-0.4-4.92,4.34-8.33,8.71-9.11
	c6.7-1.16,14.21,0.78,18.98,5.78c-3.69-10.46-5.87-23.04-15.9-29.52c2.35,3.35,4.93,7.53,3.24,11.74
	c-1.99,5.51-9.82,7.02-13.95,2.99c-5.42-5.35-5.44-15.98,1.27-20.35c4.46-3.24,10.23-3.3,15.49-2.69
	c-2.62-8.78-2.99-17.97-4.45-26.95C1088.193,512.4,1079.083,525.46,1077.543,539.2 M1049.943,531.14
	c-2.46,10.28-0.08,20.91,2.8,30.85c-2.21-13.29-1.76-27.1,2.08-40.05C1052.523,524.58,1050.703,527.69,1049.943,531.14
	 M1091.343,544.24c-3.04,2.51-2.55,7.68,0.57,9.93c1.1,1.27,3.82,2.47,4.8,0.45c1.91-3.02-0.9-6.42-3.59-7.74
	c1.44-1.24,4.01-1.83,3.9-4.17C1095.033,542.72,1092.823,542.69,1091.343,544.24 M394.263,578.11c9.64,8.21,19.02,16.8,29.53,23.94
	c2,1.07,3.49,3.62,5.87,3.68c-0.35-1.41-2.33-1.75-3.33-2.68C416.323,593.96,406.203,584.64,394.263,578.11 M409.983,583.52
	c10.32,9.18,23.67,14.67,37.17,17.1C438.833,588.61,423.313,586.1,409.983,583.52 M458.073,595.73c3.86,6.02,9.21,10.91,14.46,15.71
	c8.12,6.73,17.24,12.73,27.37,15.84c-0.04-0.54-0.13-1.63-0.17-2.17c-4.69-5.85-9.58-11.57-15.04-16.72
	C477.533,601.41,468.263,596.07,458.073,595.73 M454.853,602.7c4.55,6.85,10.34,12.91,17.17,17.52
	C467.153,613.69,462.333,606.48,454.853,602.7 M500.293,607.24c10.86,14.15,24.16,26.16,37.29,38.14c4.38,3.16,5.42-6.67,9.29-3.12
	c5.59,5.07,10.05,13.66,18.69,13.29c-0.1-1.73-0.23-3.49-0.94-5.09c-3.48-8.73-9.55-16.3-16.85-22.17
	C534.093,617.33,517.293,610.89,500.293,607.24 M557.383,623.01c0.08,1.68,0.17,3.36,0.26,5.04c15.3,19.74,23.89,43.48,36.02,65.1
	c1.34,2.44,4.3,3.2,6.46,4.75c3.7,2.21,7.64,4.53,12.09,4.57c5.72-2.47,8.22-8.94,9.48-14.64c-3.37,2.81-4.95,9.39-10.57,7.79
	c-3.93-2.99-7.11-6.88-9.8-10.98c-9.35-14.56-11.16-32.59-20.71-47.05C575.493,629.66,566.813,624.03,557.383,623.01
	 M976.303,630.91c3.01,2.2,6.82,2.11,10.33,1.56c0.02-0.38,0.05-1.15,0.07-1.53C983.243,630.68,979.643,629.45,976.303,630.91
	 M950.633,645.21c2.23,1.19,4.79,1.22,7.25,1.47c-1.79-1.25-3.53-2.59-5.21-3.96C951.663,643.36,949.593,643.62,950.633,645.21
	 M596.223,656.51c1.1,3,2.53,6.49,5.29,8.21c48.4,13.45,95.65,30.64,142.61,48.4c3.41,1.32,7.25,0.62,10.59-0.63
	c0.05-0.47,0.17-1.42,0.22-1.89C701.783,693.29,649.493,673.44,596.223,656.51 M873.473,687.56c-9.94,7.43-16.92,18.3-20.83,29.99
	c-2.42,5.69-9.46,6.43-14.86,5.8c3.29,2.96,8.06,3.25,12.26,2.91c2.91-1.52,5.67-3.86,7.17-6.79c1.07-7.62,4.73-14.7,9.94-20.3
	c8.56-9.21,20.08-14.7,31.11-20.33C889.313,678.72,880.543,682.18,873.473,687.56 M805.023,727.67c8.58,0.55,16.98-2.58,25.55-1.59
	c0.07-0.32,0.2-0.95,0.26-1.27c-2.51-1.31-4.29-3.51-5.93-5.74c-1.17-1.4-2.6-3.43-4.72-2.74
	C814.543,719.27,810.233,724.1,805.023,727.67 M739.193,758.2c-20.84,13.63-37.43,34.11-45.2,57.86c-0.39,6.64-0.25,13.4,1.18,19.93
	c3.58-20.87,15.65-39.7,32.19-52.72c10.83-8.86,23.46-15.12,36.32-20.43c11.76-8.53,25.31-14.49,39.52-17.49
	c25.64-5.94,52.11-3.6,78.13-2.79c-18.1-6.12-37.25-8.87-56.32-8.82C794.963,734.1,764.453,741.53,739.193,758.2 M789.893,763.22
	c-23.04,7.11-46.46,15.72-64.85,31.84c-9.58,8.58-17.49,19.26-21.88,31.41c-4,12.96-1.2,26.73,2.87,39.29
	c-6.01-3.43-10.75-8.83-13.65-15.1c-6.04-12.78-7.16-27.16-12.17-40.3c-2.23-0.07-3.95,1.98-6.1,2.5
	c-7.74,2.62-15.56-0.89-22.7-3.67c-8.89,11.08-15.23,24.19-18.27,38.07c-6.89,30.74,1.4,65.25,23.69,87.95
	c9.06,9.47,20.7,16.19,33.1,20.26c-10.03-0.04-19.77-3.05-29.13-6.38c-22.49-8.56-43.32-24.25-53.87-46.33
	c-6.03,6.95-10.1,15.39-13.69,23.8c-6.68,16.49-9.58,34.79-6.47,52.42c0.65,2.74,1.76,5.46,3.59,7.64c1.34,1.68,3.51,2.9,3.61,5.27
	c-2.54-0.08-4.02-2.28-5.58-3.95c-4.1-4.57-7.19-10.07-8.66-16.04c-2.48-9.2-1.15-18.89,1.01-28c3.73-15.29,10.3-29.67,14.78-44.72
	c2.8-9.78,5.38-20.05,3.82-30.28c-4.02,6.27-7.75,12.72-11.08,19.38c-12.36,24.55-19.89,52.64-15.36,80.18
	c1.56,7.56,2.78,15.73,7.85,21.87c3.87,4.68,10.54,6.24,16.28,4.62c10.27-2.36,18.55-9.2,27.05-15.01
	c-5.93,10.22-15.8,18.16-27.11,21.6c-5.93,1.81-12.21,1.35-18.29,0.73c5.56,47.31,18.11,93.37,29.08,139.62
	c6.15,0.12,11.85-2.36,17.55-4.34c15.23-5.07,28.92-15.28,37.48-28.94c5.65-8.94,7.82-20.31,4.51-30.49
	c-1.61-5.97-6.82-10.36-12.4-12.55c-6.81-2.71-14.4,0.15-19.71,4.67c-6.9,5.94-11.45,14.66-12.16,23.76
	c-0.58,6.22,1.71,12.42,5.75,17.12c-7.78-4.06-13.63-11.54-15.57-20.1c-1.72-6.52,0.08-14.11,5.28-18.59
	c4.43-3.71,8.89-7.62,14.38-9.67c9.95-3.94,22.05-3.67,31.11,2.38c7.45,5.12,12.69,14.59,10.82,23.73
	c-1.45,13.66-8.06,26.51-17.56,36.33c-12.98,13.48-30.95,22.14-49.63,23.55c0.04,39.08-5.95,77.84-13.12,116.16
	c159.44-124.59,318.99-249.02,477.52-374.76c13.61-11.03,27.67-21.53,40.99-32.91c-97.91-30.9-192.23-72.46-291.23-100.01
	c-2.51-0.54-5.06-2.03-7.65-1.12C806.043,758.46,797.943,760.77,789.893,763.22 M630.573,781.36c-1.89,1.73-5.29,0.13-6.63,2.63
	c-1.04,1.36-1.44,3.06-1.97,4.67c7.23,1.58,13.64-3.48,17.09-9.38C635.983,777.34,633.013,779.55,630.573,781.36 M688.093,784.97
	c0.27,4.72,1.18,9.39,1.36,14.13c3.07-6.07,6.76-11.84,9.25-18.19C694.803,781.13,691.513,783.34,688.093,784.97 M669.623,785.37
	c-6.15,3.24-9.72,10.21-10.05,17.02c9.26,3.79,19.77-7.2,16.82-16.5C674.253,785.01,671.803,783.98,669.623,785.37 M562.473,920.93
	c-5.09,29.84-2.39,62.05,12.72,88.76c0.55-21.68-10.02-42.01-8.71-63.74c2.68-34.78,17.91-66.99,35.38-96.63
	c-8.79,7.85-11.42,20.1-19.35,28.59c4.44-19,19.04-33.46,24.52-52.01C584.473,853.08,568.733,886.11,562.473,920.93 M609.103,850.98
	c-1.07,11.24,0.47,22.63,3.22,33.54c4.31,15.97,12.3,31.35,24.76,42.48c-14.53-19.28-11.19-46.04-25.46-65.45
	C611.543,857.89,611.493,854,609.103,850.98 M408.853,885.89c-4.73,10.3-2.02,22.07-5.41,32.69c-0.95-0.37-2.08-0.42-2.76-1.23
	c-0.61-2.82-0.26-5.75-0.42-8.6c-4.64,4.39-6.58,11.02-7,17.25c-0.95,13.88,5.51,27.31,14.91,37.21c-2.6,2.23-6.28,1.75-9.34,0.95
	c-5.33-1.69-10.28-4.41-15.74-5.71c3.26,6.5,8.74,11.65,14.64,15.78c7.26,5.05,16.44,7.71,25.22,5.75
	c-1.52-1.65-3.47-3.02-4.49-5.06c-0.64-2.06,1.28-3.36,2.52-4.61c5.6,3.91,10.11,9.57,16.9,11.54c-6.35-5.15-12.12-11.4-15.39-18.98
	c-2.3-5.19-1.66-11.82,2.92-15.57c-1.25-6.76,3.37-12.37,5.09-18.55c-0.74-0.08-2.21-0.22-2.94-0.3c-0.59-2.52,0.05-4.82,2.38-6.13
	c-2.29-2.13-6.27-4.27-8.5-0.86c-5.07,7.81-4.16,17.63-4.22,26.52c-6.37-4.99-6.15-14.08-5.06-21.32c0.36-3.99,3.31-7.53,2.33-11.62
	C413.073,905.26,412.963,895.04,408.853,885.89 M1363.893,920.52c16.46,6.84,35.28,2.73,50.16-6.06
	C1397.593,918.23,1380.753,919.95,1363.893,920.52 M1413.373,921.4c-5.72,2.42-11.84,5.03-15.65,10.17c2.74,0.58,5.64,0.78,8.3-0.32
	c7.57-2.83,12.55-9.55,18.95-14.12C1421.013,918.3,1417.193,919.87,1413.373,921.4 M1469.093,937.6
	c-9.19,1.19-18.45,3.85-25.96,9.48c1.17,0.78,2.58,2.36,4.09,1.17c11.14-5.78,23.47-9.04,35.92-10.42c1.14-0.13,2.47-0.26,3.08-1.43
	C1480.473,935.82,1474.773,936.94,1469.093,937.6 M1463.243,953.74c8.29-0.43,14.93-5.93,22.1-9.45
	C1477.293,944.54,1467.263,945.59,1463.243,953.74 M1575.183,962.06c-21.58,5.51-43.92,7.22-66.12,7.75
	c4.33,1.85,8.56,3.96,12.92,5.77c21.71-2.61,43.6-4.91,64.87-10.24C1583.043,964.01,1579.433,960.3,1575.183,962.06
	 M1415.083,964.96c11.27,14.58,23.4,28.51,36.45,41.52c4.67,4.36,8.98,9.32,14.49,12.64c-3.23-6.81-8.02-12.73-11.96-19.12
	C1444.203,985.54,1432.373,970.58,1415.083,964.96 M1464.093,970.13c9.79,5.12,20.85,8.02,31.92,7.77c4.44-0.03,9.03,0.06,13.22-1.7
	c-10.96-1.6-20.16-8.81-31.14-10.29C1473.053,965.2,1468.013,967.03,1464.093,970.13 M1584.083,973.76
	c-12.98,1.89-25.51,5.93-38.17,9.25c8.99,1.28,18.11,0.1,27.08-0.8c14.97-1.79,29.94-4.36,45.07-3.8
	C1607.743,972.77,1595.513,972.02,1584.083,973.76 M1459.993,980.45c12.89,20.24,33.54,34.77,55.85,42.99
	c-0.95-2.49-2.84-4.4-4.3-6.55c0.46-0.87,1.65-2.21,2.67-1.1c9.18,7.05,19.9,13.54,31.82,13.71c-18.97-9.8-31.81-28.84-52.12-36.35
	c4.26,5.67,10.25,9.93,13.6,16.32c-0.07,0.51-0.2,1.53-0.26,2.03c-1.26-0.07-2.51-0.39-3.46-1.21
	c-9.53-6.69-16.72-16.11-26.14-22.93C1472.513,983.53,1466.383,981.04,1459.993,980.45 M1522.983,990.52
	c10.36,5.06,21,10.75,32.77,11.26c-0.44-1.41-0.87-2.8-1.27-4.19c-5.82-3.19-11.37-7.01-17.64-9.28
	C1532.323,986.83,1526.373,986.64,1522.983,990.52 M1565.943,994.66c14.74-2.25,29.54-4.21,44.34-6.08
	C1595.303,986.87,1580.063,989.66,1565.943,994.66 M1612.853,988.43c1.61,0.98,3.11,2.51,5.19,2.32c13.59-0.01,26.7,4,40.06,5.92
	C1644.503,988.9,1628.193,987.21,1612.853,988.43 M1523.893,1003.36c5.42,6.57,12.5,11.55,19.63,16.1
	c17.84,10.8,37.96,17.01,58.01,22.26c-0.02-0.48-0.05-1.42-0.06-1.9c-15.76-7.22-28.78-18.86-42.22-29.54
	C1546.853,1012.96,1535.603,1005.99,1523.893,1003.36 M618.083,1090.24c1.12-6.91,5.03-12.8,7.95-19.01
	C619.873,1075.13,615.023,1082.91,618.083,1090.24 M549.413,1116.89c-0.03,3.91-1.35,7.61-2.36,11.35c2.28-2.13,3.22-6.58,7.06-6.04
	c5.03,17.84,9.91,36.09,9.28,54.79c-0.33,8.66,0.54,17.38-0.88,25.97c-0.67,6.42-2.38,12.74-2.2,19.23
	c4.74-7.92,8.65-16.3,12.48-24.69c3.05-6.84,7.11-13.22,9.19-20.46c1.33-3.2,2.4-8.27,6.8-8.01
	c-12.51,47.22-31.83,92.52-55.54,135.18c-38.63,68.83-89.43,130.87-149.56,182.03c0.08,7.28-5.64,13.51-4.03,20.92
	c17.31-18.53,35.8-35.91,53.32-54.25c6.78-7.13,13.06-14.72,19.8-21.87c4.29-5.28,6.71-13.36,14.15-15
	c-2.48,6.87-7.42,12.39-12.05,17.89c-5.4,6.25-8.47,14.04-13.03,20.86c-5.73,8.4-8.38,18.35-12.11,27.7
	c-1.52,3.64-1.81,7.61-2.7,11.43c-2.59,12.71-5.51,25.35-7.98,38.09c-1.93,9.28-3,18.7-4.81,28c-2.23,12.97-4.69,26.11-3.5,39.33
	l1.29-0.8c1.8-7.45,2.3-15.12,3.56-22.66c1.62-12.99,5.01-25.66,8.4-38.28c16.25-58.44,45.03-112.62,78.93-162.64
	c23.33-34.54,49.03-67.4,75.03-99.95c1.67-2.21,3.87-4.21,4.35-7.06c10.06-38.65,19.89-78.11,18.41-118.36
	c-11.5,0.78-22.79-4.28-30.66-12.52c-7.96-8-13.32-18.1-17.98-28.26C550.543,1111.24,549.383,1113.95,549.413,1116.89
	 M477.533,1158.43c5.7,4.82,13.97,6,18.32,12.46c1.52-3.79-0.43-7.65-1.73-11.17C488.813,1157.77,483.073,1158.18,477.533,1158.43
	 M505.713,1186.92c5.13,2.15,12.69,4.8,12.07,11.69c0.64,0.05,1.91,0.17,2.55,0.22c1.42,12.23-5.93,22.89-11.89,32.86
	c7.08-1.73,9.94-8.99,14.68-13.71c4.66-6.75,2.43-15.57,0.6-22.92c-2.9-4.63-8.54-6.37-13.45-8.1
	C508.813,1186.22,507.223,1186.72,505.713,1186.92 M526.873,1187.96c3.93,5.72,4.04,12.76,4.62,19.43
	c1.85-5.18,3.48-11.25,0.64-16.38C531.153,1188.96,528.943,1188.24,526.873,1187.96 M421.863,1215.57
	c11.11-5.74,24.01-7.16,34.71-13.8c1.23-0.69,2.22-1.7,2.73-3.02C445.363,1198.66,429.683,1203.11,421.863,1215.57 M547.193,1237.22
	c-32.08,83.64-82.38,159.74-143.83,224.67c14.49-10.49,26.81-23.58,39.28-36.32c14.47-17.34,28.66-34.96,41.52-53.55
	c21.51-32.57,44.44-64.91,57.67-101.96c0.79-1.88,1.16-4.63,3.69-4.9c0.09,0.73,0.27,2.19,0.36,2.93
	c11.03-17.34,17.44-37,24.92-55.99c-5.77,6.9-8.42,15.75-13.78,22.92c-1.86,2.22-3.89,4.78-7,5.1c3.39-9.05,4.87-18.71,5.56-28.31
	C551.823,1219.96,550.513,1228.92,547.193,1237.22 M686.653,1271.1c-5.45,22.12-14.02,43.51-25.61,63.15
	c-1.99,3.7-4.89,6.94-6.13,11.03c21.07-14.96,37.39-38.18,40.35-64.24c1.19-9.95-1-19.9-4.51-29.17
	C689.203,1258.24,688.283,1264.74,686.653,1271.1 M570.873,1310.07c1.5-4.95,0.88-10.2,0.7-15.27
	C565.873,1298.34,569.553,1305.18,570.873,1310.07 M546.253,1422.29c-9.37,16.53-16.09,35.64-13.37,54.87
	c11.28-9.36,19.19-22.86,21.78-37.28c-4.6,2.77-7.41,7.74-12.32,10.08c-0.11-5.42,3.92-9.61,7.82-12.83
	c4.57-3.74,9.94-7.4,11.44-13.49c-5.11,1.5-7.29,7.46-12.52,8.63c1.29-7.79,8.13-12.89,14.49-16.65c2.83-9.31,5.04-18.88,6.19-28.53
	C561.733,1398.68,553.073,1409.9,546.253,1422.29 M575.013,1393.74c-1.84,5.68-0.3,12.56,4.18,16.59
	C580.263,1404.54,578.353,1398.45,575.013,1393.74 M571.163,1408.77c-4.53,10.31,5.12,19.89,3.48,30.37
	C577.363,1429.1,575.523,1418.04,571.163,1408.77 M563.653,1438.83c1.43,7.04,4.2,13.89,3.9,21.2c6.46-10.56,2.74-23.69-1.89-34.21
	C562.623,1429.38,563.003,1434.49,563.653,1438.83 M558.953,1444.64c-4.81,15.78-9.53,31.61-14.88,47.23
	c3.01-4.77,7.27-8.66,9.93-13.68c6.12-10.16,9.25-22.62,6.02-34.28L558.953,1444.64 M302.673,1464.14
	c9.61,7.37,23.78,4.92,32.86,13.37c2.18,1.8,2.6,5.51,5.66,6.2c4.9,1.45,11,1.32,14.18,6.05c10.24-6.46,20.89-12.94,28.65-22.42
	c-3.84,1.38-7.86,2.44-11.97,2.2c-14.95-0.62-27.8-10.97-42.95-10.3c-2.99-0.15-5.85,1.22-8.83,0.92
	C314.083,1458.93,308.493,1462.71,302.673,1464.14 M532.543,1488.07c4.11-3.27,8.16-7.24,9.63-12.42
	C537.733,1478.38,531.653,1481.92,532.543,1488.07 M258.993,1487.3c16.42,12.43,35.56,22.65,56.42,24.29
	c0.45,1.06,0.9,2.14,1.35,3.24c7.46-6.06,17.19-8.43,24.56-14.6c2.01-1.92,4.59-4.05,4.59-7.06c-4.88-2.54-10.32-3.77-15.73-4.57
	C306.503,1485.77,282.313,1494.34,258.993,1487.3 M530.723,1505.9c3.77-4.96,6.24-10.79,7.78-16.79
	C531.343,1491.1,531.313,1499.88,530.723,1505.9 M190.233,1506.7c12.73,13.82,30.22,22.83,48.66,26.07
	c7.81,1.22,15.88,2.28,23.73,0.77c-5.24-2.49-10.54-4.85-15.67-7.56c-3.06-1.83-6.52-3.6-8.15-6.95c1.3-0.46,2.73-2,4.11-0.91
	c18.31,10.12,41.75,13.43,61.01,4.02c2-1.24,5.12-1.93,5.3-4.75c-8.53,0.34-16.48,4.79-25.1,4.02c-3.95-0.37-6.87-3.33-10.12-5.26
	c-14.21-9.08-29.91-16.75-46.86-18.57C214.313,1496.24,200.713,1498.91,190.233,1506.7 M322.023,1526.94c-1.66,0.5-1.75,2-1.54,3.5
	c-3.8,0.78-7.78,1.55-10.91,4.01c-6.91,5.13-10.6,13.2-14.22,20.76c3.9-0.94,7.35-3.05,10.92-4.79
	c21.96-11.42,42.8-26.94,55.71-48.46C348.973,1510.77,335.343,1518.6,322.023,1526.94 M119.923,1514.96
	c-2.37,0.73-4.41,2.43-6.85,2.84c-3.72-0.66-7.75-1.08-11.13,1.01c-0.99,0.7-3.05,1.21-2.64,2.83
	c12.01,12.44,28.08,20.44,44.75,24.54c22.83,5.71,46.64,4.95,69.91,3.07c10.19-1.39,20.77-1.05,30.42-5.07l1.33-1.64
	c-21.59-1.59-43.24-2.57-64.79-4.66c-1.23-0.09-2.04-1.09-2.97-1.72c-9.69-8.11-20.16-15.68-32.12-20.04
	C137.633,1513.05,128.303,1512.05,119.923,1514.96 M261.193,1554.02c-17.6,7.81-35.25,15.88-54.12,20.2
	c23.99,2.82,47.65-8.34,64.97-24.32C268.223,1550.7,264.763,1552.52,261.193,1554.02 M191.573,1571.78
	c6.7-0.19,13.96-0.83,19.45-5.12C204.533,1568.07,196.913,1567.03,191.573,1571.78 M469.563,1723.55c-5.11,4.45-11.7,7-18.46,7.31
	c-1.27,1.4-2.12,4.5-4.58,3.54c-3.74-1.35-6.81-4.16-10.76-5.02c-0.6-2.21-1.11-4.45-1.46-6.69c-1.21-0.7-3.01-0.91-3.34-2.51
	c-1.03-2.31-0.62-6.3-4.15-6.07c-1.03,11.23,4.41,22.87,14.17,28.71c5.2,3.45,12.18,4.08,17.84,1.39
	c6.72-3.01,11.81-8.67,15.84-14.69c5.04-7.72,8.45-16.5,9.99-25.58C480.503,1711.08,475.983,1718.21,469.563,1723.55z
	 M1029.203,545.2c1.71-2.06,4.1-3.34,6.66-4.04c-0.49,5.92-1.78,11.85-0.77,17.8c0.68,9.01,3.62,17.66,7.54,25.76
	c-9.68-3.76-12.22-14.95-15.5-23.67c-6.73,16.86-17.04,32.38-30.81,44.3c-18.95,16.78-42.36,27.48-66.1,35.6
	c-3.32,1.13-7.28,1.66-9.51,4.67c-2.12,2.82-0.86,6.92,1.8,8.91c1.76,1.81,4.44,1.27,6.7,1.16c2.16-2.1,3.39-4.84,4.03-7.75
	c2.15,1.68,2.71,4.5,2.86,7.1c0.02,7.01-5.21,13.72-12,15.42c-11.36,2.49-22.73-7.31-23.93-18.43c-0.97-6.85,3.03-13.45,8.32-17.48
	c3.28-2.65,7.68-2.08,11.57-2.84c23.98-3.64,46.17-15.49,64.25-31.41c15.42-13.56,28.24-29.97,38.29-47.85
	C1024.333,549.65,1027.083,547.69,1029.203,545.2 M918.943,635.48c-5.98,0.66-10.78,5.29-13.44,10.42
	c-0.37,5.36,1.38,10.81,4.44,15.2c2.17,2.9,5.23,5.83,9.11,5.75c3.56,0.28,7.66-0.99,9.11-4.58c-3.75,0.41-8.04,1.38-11.32-1.09
	c-4.24-2.93-7.1-9.44-3.75-14.03c4.11-6.26,11.84-8.27,17.04-13.38C926.373,634.19,922.673,634.9,918.943,635.48z"/>
</svg>
