<?xml version="1.0" encoding="UTF-8"?>
<!DOCTYPE svg PUBLIC "-//W3C//DTD SVG 1.1//EN" "http://www.w3.org/Graphics/SVG/1.1/DTD/svg11.dtd">
<svg version="1.1" xmlns="http://www.w3.org/2000/svg" xmlns:xlink="http://www.w3.org/1999/xlink" x="0" y="0" width="392" height="576" viewBox="0, 0, 392, 576">
  <defs>
    <clipPath id="Clip_1">
      <path d="M128.603,200.325 L143.828,217.981 L128.583,235.091 L70.312,235.081 L80.068,217.972 L70.332,200.315 L128.603,200.325 z"/>
    </clipPath>
  </defs>
  <g id="Layer_1">
    <path d="M362.539,217.298 C364.912,218.519 368.242,218.587 370.966,218.977 C372.773,219.261 377.646,219.847 377.685,222.444 C377.705,225.257 372.373,224.436 370.449,224.739 C369.423,224.895 367.861,224.954 366.933,225.433 C364.316,226.78 365.097,231.897 364.15,234.388 C362.802,237.942 360.371,241.009 357.216,243.128 C348.818,248.851 337.47,246.761 331.835,238.499 C326.21,230.237 328.466,218.899 336.875,213.177 C341.816,209.808 348.261,209.017 353.857,211.165 C356.865,212.327 358.837,214.222 361.152,216.351 C361.552,216.722 362.021,217.034 362.539,217.298" fill="#F6C6A0"/>
    <path d="M263.085,523.548 C272.851,531.683 303.681,549.632 302.333,559.436 C300.732,571.155 286.884,566.429 278.271,565.227 C269.365,563.987 258.427,564.104 250.683,559.436 C247.324,557.395 241.367,539.515 240.39,535.374 C237.978,525.14 244.414,522.942 252.958,523.548" fill="#B4B5B4"/>
    <path d="M133.535,564.339 L133.779,564.251 C147.333,559.485 155.82,554.251 156.23,538.265 C156.494,527.688 152.109,518.587 140.371,518.479 C125,518.352 124.511,530.843 117.353,540.667 C112.47,547.376 81.601,575.472 112.05,572.913 C119.013,572.327 126.494,566.888 133.535,564.339" fill="#B4B5B4"/>
    <path d="M138.925,333.157 C138.925,333.157 108.906,464.847 106.21,530.628 C106.21,530.628 227.988,566.048 279.951,522.864 C279.951,522.864 254.56,367.054 219.57,328.548 L138.925,333.157" fill="#1B3863"/>
    <path d="M260.185,265.276 L347.06,239.378 L343.242,217.894 L260.185,231.936 L260.185,265.276" fill="#F6C6A0"/>
    <path d="M225.976,291.106 C225.8,296.106 217.275,276.038 215.527,271.556 C211.474,261.136 221.992,228.86 233.447,225.52 C243.574,222.581 254.228,227.093 269.013,227.024 C264.179,240.179 275.634,273.235 268.74,279.358 C268.652,279.436 226.21,284.065 225.976,291.106" fill="#E4E4E3"/>
    <path d="M128.144,283.011 C126.992,254.212 122.578,243.704 122.578,243.704 L151.425,230.159 L205.654,229.407 L233.447,225.52 C233.447,225.52 233.027,303.118 224.931,317.962 C217.988,330.677 219.228,325.52 214.492,326.868 C150.673,346.448 142.314,327.532 142.314,327.532 L128.144,283.011" fill="#E4E4E3"/>
    <path d="M164.316,221.888 L179.98,254.456 L195.283,222.503 L164.316,221.888" fill="#F6C6A0"/>
    <path d="M176.209,271.137 C176.209,271.135 176.359,270.659 176.639,269.798 C177.617,266.784 180.167,259.101 183.263,251.125 C184.811,247.139 186.496,243.078 188.185,239.5 C189.87,235.923 191.57,232.821 193.094,230.796 L191.475,229.581 C189.566,232.128 187.577,235.922 185.619,240.224 C179.761,253.11 174.286,270.509 174.278,270.529 L176.209,271.137" fill="#8A8B8A"/>
    <path d="M168.069,231.986 L179.202,257.006 L181.051,256.183 L169.918,231.164" fill="#8A8B8A"/>
    <path d="M158.295,230.811 C158.301,230.831 160.565,238.675 163.979,246.905 C165.688,251.022 167.681,255.234 169.85,258.64 C170.937,260.343 172.067,261.847 173.252,263.042 C174.438,264.235 175.681,265.136 177.046,265.56 L177.641,263.625 C176.744,263.353 175.728,262.668 174.689,261.617 C172.865,259.784 171,256.881 169.285,253.581 C166.707,248.629 164.437,242.782 162.821,238.186 C162.012,235.887 161.366,233.899 160.922,232.488 C160.7,231.783 160.529,231.221 160.414,230.837 C160.298,230.453 160.24,230.25 160.239,230.249 L158.295,230.811" fill="#8A8B8A"/>
    <path d="M201.447,230.792 C201.445,230.798 197.359,239.486 193.268,248.864 C191.223,253.554 189.177,258.415 187.636,262.46 C186.865,264.484 186.22,266.303 185.763,267.808 C185.534,268.561 185.352,269.236 185.224,269.827 C185.096,270.421 185.019,270.924 185.017,271.388 L185.025,271.618 L187.044,271.474 L187.041,271.388 C187.04,271.172 187.09,270.767 187.202,270.255 C187.619,268.313 188.844,264.853 190.434,260.852 C192.82,254.837 196.034,247.531 198.648,241.736 C199.956,238.838 201.114,236.316 201.945,234.52 C202.776,232.724 203.277,231.657 203.279,231.654 L201.447,230.793" fill="#8A8B8A"/>
    <path d="M117.646,156.038 C117.597,163.665 123.203,174.856 125.361,182.483 C127.871,191.302 130.869,198.919 133.896,207.278 C127.724,208.597 112.138,199.651 106.923,195.852 C93.232,185.901 80.458,160.013 87.675,142.981 C95.644,124.261 119.14,137.63 119.121,154.31" fill="#4E3222"/>
    <path d="M252.763,157.063 C251.728,157.142 251.953,153.733 251.015,154.026 L251.25,157.034 C247.685,111.731 215.839,82.757 174.941,84.817 L174.941,84.808 L174.687,84.827 C174.589,84.827 174.521,84.827 174.433,84.827 L174.433,84.856 C133.71,89.231 106.816,122.845 110.39,168.138 L110.156,165.14 C109.16,165.003 109.941,168.323 108.906,168.401 C101.767,168.968 97.451,174.602 98.007,181.731 C98.574,188.88 102.285,194.407 109.414,193.841 C111.835,193.655 114.013,192.757 115.849,191.438 C115.849,191.438 139.443,236.028 186.103,232.854 L186.103,232.874 L186.357,232.845 C186.455,232.835 186.542,232.835 186.611,232.825 L186.611,232.806 C233.203,228.626 249.501,180.901 249.501,180.901 C251.542,181.907 253.837,182.464 256.25,182.269 C263.359,181.712 266.181,175.657 265.605,168.519 C265.048,161.39 259.873,156.497 252.763,157.063" fill="#F6C6A0"/>
    <path d="M194.868,178.079 C196.577,178.14 197.71,178.593 198.373,179.132 C199.034,179.679 199.291,180.282 199.3,180.97 C199.3,181.565 199.076,182.246 198.554,182.916 C198.034,183.583 197.219,184.229 196.087,184.707 C195.465,184.969 195.174,185.686 195.436,186.308 C195.698,186.93 196.415,187.221 197.037,186.959 C198.507,186.338 199.671,185.456 200.481,184.419 C201.289,183.384 201.743,182.183 201.744,180.97 C201.753,179.57 201.104,178.185 199.91,177.232 C198.717,176.271 197.046,175.712 194.955,175.637 C194.281,175.613 193.714,176.14 193.69,176.814 C193.666,177.489 194.194,178.055 194.868,178.08" fill="#ED9973"/>
    <path d="M175.175,173.147 C175.498,177.269 173.447,180.784 170.615,181.009 C167.753,181.233 165.185,178.079 164.863,173.977 C164.541,169.847 166.591,166.341 169.423,166.116 C172.285,165.882 174.843,169.046 175.175,173.147" fill="#352519"/>
    <path d="M219.746,169.642 C220.078,173.743 222.636,176.907 225.498,176.692 C228.33,176.458 230.39,172.942 230.058,168.821 C229.736,164.7 227.148,161.556 224.306,161.78 C221.464,162.005 219.423,165.52 219.746,169.642" fill="#352519"/>
    <path d="M240.39,136.048 C238.476,126.77 233.261,118.05 234.15,117.308 C204.648,146.517 163.193,158.909 154.755,158.88 C166.21,154.3 167.734,136.243 176.123,128.44 C165.556,142.542 149.716,153.489 133.896,160.882 C122.47,166.204 100.849,177.034 90.029,165.794 C77.568,152.854 85.41,118.636 90.439,103.977 C98.066,81.829 116.083,69.466 136.894,61.126 C148.271,56.556 175.849,40.325 195.869,59.896 C199.003,62.962 203.984,58.372 208.779,59.124 C217.48,60.462 226.22,67.757 232.675,73.343 C240.664,80.257 248.447,91.272 251.738,101.321 C260.419,127.757 253.779,148.118 244.531,172.561 C241.591,160.315 242.832,148.02 240.39,136.048" fill="#4E3222"/>
    <path d="M132.236,90.501 C137.871,75.745 115.703,61.995 105.117,61.302 C90.273,60.335 76.318,66.566 67.363,77.767 C56.074,91.907 55.332,114.134 49.052,130.589 C41.435,150.53 21.103,149.671 2.294,146.009 C8.916,156.116 35.224,169.358 45.449,167.386 C64.951,163.665 68.222,153.675 74.765,136.37 C79.091,124.944 85.351,115.413 100.156,114.134 C108.066,113.45 107.48,108.431 114.833,108.782 C123.378,109.202 135.185,101.204 138.662,94.31" fill="#4E3222"/>
    <path d="M185.18,209.538 C185.581,209.084 186.232,208.563 187.066,208.078 C188.315,207.345 189.963,206.688 191.737,206.233 C193.512,205.776 195.416,205.517 197.183,205.518 C198.896,205.515 200.476,205.765 201.677,206.235 C202.278,206.468 202.784,206.751 203.189,207.07 C203.595,207.389 203.903,207.738 204.139,208.144 C204.746,209.19 206.087,209.546 207.134,208.939 C208.181,208.332 208.537,206.991 207.93,205.944 C207.398,205.025 206.694,204.247 205.894,203.621 C204.692,202.68 203.292,202.07 201.816,201.684 C200.337,201.299 198.773,201.136 197.183,201.135 C194.266,201.138 191.261,201.684 188.581,202.609 C187.241,203.074 185.982,203.635 184.854,204.294 C183.726,204.956 182.723,205.71 181.909,206.62 C181.103,207.523 181.182,208.909 182.085,209.714 C182.989,210.52 184.374,210.441 185.18,209.538" fill="#E57266"/>
    <path d="M256.582,456.731 C253.935,456.731 248.193,435.315 273.925,412.19 C287.187,400.267 305.917,380.686 316.474,366.819 C342.822,332.122 346.22,298.987 345.38,230.472 L345.38,228.811 C346.22,160.227 342.822,127.112 316.474,92.405 C305.917,78.519 286.914,59.242 273.925,47.025 C247.91,22.562 257.978,-0.3 257.197,2.513 C256.083,6.429 274.14,32.923 281.054,39.242 C294.55,51.605 313.945,71.634 324.873,86.019 C356.152,127.21 361.494,166.448 360.732,228.87 L360.732,230.403 C361.494,292.776 356.152,332.005 324.873,373.206 C313.955,387.571 294.57,407.62 281.054,419.974 C274.14,426.302 259.746,440.794 257.197,456.692 C257.158,456.907 256.777,456.731 256.582,456.731" fill="#6F554B"/>
    <path d="M93.701,287.933 C93.828,288.597 93.916,289.28 93.994,289.964 C94.863,299.808 85.976,297.513 78.378,298.724 C69.677,300.101 46.318,299.085 37.539,296.673 C29.121,294.358 47.89,239.007 49.746,235.071 C54.941,224.124 62.451,224.739 72.763,230.882 C80.312,235.384 62.314,273.792 68.349,273.587 C76.054,273.304 76.953,271.966 84.365,275.55 C89.355,277.952 92.646,282.61 93.701,287.933" fill="#F6C6A0"/>
    <path d="M137.578,302.571 C144.072,296.624 137.421,283.401 137.578,274.915 C137.636,272.386 123.144,249.124 122.578,243.714 C122.675,244.622 88.173,262.22 79.384,263.411 C76.513,283.89 85.019,288.694 86.025,308.323 C94.062,309.456 136.367,303.704 137.578,302.571" fill="#E4E4E3"/>
    <path d="M139.892,320.227 C127.197,300.413 120.712,255.442 156.308,256.956 C171.181,257.591 174.394,270.198 184.687,278.079 C193.105,284.524 214.96,285.911 213.964,300.198 C213.017,313.704 196.474,315.852 186.357,319.114 C171.591,323.87 153.388,326.409 138.642,318.977" fill="#272726"/>
    <path d="M185.908,340.706 C171.591,340.706 156.083,338.714 139.462,334.7 C138.408,334.446 137.207,333.977 136.748,333.89 L138.583,316.458 C139.472,316.565 141.572,316.507 143.457,316.956 C175.4,324.651 208.037,323.235 229.16,314.925 L224.257,330.823 C211.289,335.95 202.07,340.706 185.908,340.706" fill="#1B3863"/>
    <path d="M366.914,225.979 C367.431,227.503 367.753,229.104 368.193,230.53 C369.394,234.358 368.339,238.548 366.259,241.897 C363.974,245.589 358.603,247.317 355.156,243.948 C353.125,241.976 351.855,238.45 351.66,235.755 C351.542,234.114 351.699,232.19 352.402,230.735 C353.095,229.3 354.365,228.753 354.003,226.995 C353.691,225.452 352.187,225.237 353.037,223.138 C354.57,219.388 361.718,219.251 364.501,221.819 C365.693,222.913 366.406,224.407 366.914,225.979" fill="#F6C6A0"/>
    <path d="M254.827,13.322 L75.364,211.476 C74.712,212.196 74.663,213.273 75.246,214.05 L252.365,449.871 C253.037,450.764 254.305,450.945 255.199,450.273 C256.093,449.602 256.274,448.333 255.602,447.44 L79.486,212.955 L257.828,16.039 C258.578,15.211 258.515,13.93 257.686,13.18 C256.857,12.43 255.578,12.494 254.827,13.323" fill="#513E36"/>
    <path d="M128.603,200.325 L143.828,217.981 L128.583,235.091 L70.312,235.081 L80.068,217.972 L70.332,200.315 L128.603,200.325" fill="#8A8B8A"/>
    <g clip-path="url(#Clip_1)">
      <path d="M78.993,242.997 L93.27,219.569 L91.104,218.248 L76.826,241.676" fill="#A0A1A0"/>
      <path d="M95.859,242.996 L110.116,219.568 L107.949,218.249 L93.691,241.677" fill="#A0A1A0"/>
      <path d="M76.845,193.758 L91.103,217.195 L93.271,215.876 L79.013,192.439" fill="#A0A1A0"/>
      <path d="M93.691,193.758 L107.949,217.195 L110.117,215.876 L95.859,192.439" fill="#A0A1A0"/>
      <path d="M112.685,243.006 L126.952,219.569 L124.785,218.249 L110.517,241.686" fill="#A0A1A0"/>
      <path d="M110.537,193.768 L124.785,217.195 L126.953,215.876 L112.705,192.449" fill="#A0A1A0"/>
    </g>
    <path d="M378.281,214.231 L351.855,214.222 L237.187,214.212 L72.841,214.192 L72.841,221.224 L236.289,221.233 L236.289,221.243 L351.855,221.253 L378.281,221.253 C380.537,221.253 389.326,217.757 389.326,217.757 C389.326,217.757 380.537,214.231 378.281,214.231" fill="#926E4A"/>
    <path d="M75.634,203.392 C65.458,202.649 55.048,204.769 50.253,214.925 C48.613,218.401 46.728,226.263 49.355,229.69 C48.427,231.253 45.087,245.286 43.525,247.845 C48.72,249.661 68.496,253.216 73.134,253.147 C73.984,250.286 74.677,247.366 75.332,244.456 C75.712,242.747 75.605,239.476 76.455,238.001 C78.574,234.339 84.169,237.005 86.826,233.519 C89.501,230.013 90.048,225.765 90.205,221.37 C93.632,221.468 100.068,220.833 102.919,219.212 C106.835,216.985 104.648,214.095 101.718,211.36 C98.134,207.972 93.085,206.751 88.476,205.589 C84.57,204.602 80.117,203.724 75.634,203.392" fill="#272726"/>
  </g>
</svg>
