<?xml version="1.0" encoding="UTF-8" standalone="no"?>
<svg
   xmlns:dc="http://purl.org/dc/elements/1.1/"
   xmlns:cc="http://creativecommons.org/ns#"
   xmlns:rdf="http://www.w3.org/1999/02/22-rdf-syntax-ns#"
   xmlns:svg="http://www.w3.org/2000/svg"
   xmlns="http://www.w3.org/2000/svg"
   xmlns:sodipodi="http://sodipodi.sourceforge.net/DTD/sodipodi-0.dtd"
   xmlns:inkscape="http://www.inkscape.org/namespaces/inkscape"
   data-name="Layer 1"
   width="570"
   height="511.675"
   viewBox="0 0 570 511.675"
   version="1.1"
   id="svg3489"
   sodipodi:docname="undraw_Mail_sent_re_0ofv2.svg"
   inkscape:version="1.0.1 (0767f8302a, 2020-10-17)">
  <metadata
     id="metadata3495">
    <rdf:RDF>
      <cc:Work
         rdf:about="">
        <dc:format>image/svg+xml</dc:format>
        <dc:type
           rdf:resource="http://purl.org/dc/dcmitype/StillImage" />
        <dc:title></dc:title>
      </cc:Work>
    </rdf:RDF>
  </metadata>
  <defs
     id="defs3493" />
  <sodipodi:namedview
     pagecolor="#ffffff"
     bordercolor="#666666"
     borderopacity="1"
     objecttolerance="10"
     gridtolerance="10"
     guidetolerance="10"
     inkscape:pageopacity="0"
     inkscape:pageshadow="2"
     inkscape:window-width="1853"
     inkscape:window-height="1025"
     id="namedview3491"
     showgrid="false"
     inkscape:zoom="1.2133479"
     inkscape:cx="159.61118"
     inkscape:cy="323.01082"
     inkscape:window-x="67"
     inkscape:window-y="27"
     inkscape:window-maximized="1"
     inkscape:current-layer="svg3489" />
  <path
     d="M565 195.675a.997.997 0 01-.572-.18L287.87 2.893a5.015 5.015 0 00-5.729.01L7.574 195.494a1 1 0 01-1.148-1.638L280.993 1.264a7.022 7.022 0 018.02-.013L565.57 193.854a1 1 0 01-.572 1.82z"
     fill="#3f3d56"
     id="path3473" />
  <path
     fill="#fcba74"
     d="M23.264 202.502L285.276 8.319l264 208-250.5 148.5-136-31L23.264 202.502z"
     id="path3475" />
  <path
     d="M174.256 456.541H44.816a6.047 6.047 0 110-12.095h129.44a6.047 6.047 0 110 12.095zM91.256 430.541h-46.44a6.047 6.047 0 110-12.095h46.44a6.047 6.047 0 110 12.095z"
     fill="#fb7185"
     id="path3477" />
  <path
     d="M563 193.675h-.2L448 242.695l-157.07 67.07a5.066 5.066 0 01-3.88.02L125 242.555l-117.62-48.8-.18-.08H7a7.008 7.008 0 00-7 7v304a7.008 7.008 0 007 7h556a7.008 7.008 0 007-7v-304a7.008 7.008 0 00-7-7zm5 311a5.002 5.002 0 01-5 5H7a5.002 5.002 0 01-5-5v-304a5.011 5.011 0 014.81-5L125 244.715l161.28 66.92a7.12 7.12 0 005.44-.03L448 244.865l115.2-49.19a5.016 5.016 0 014.8 5z"
     fill="#3f3d56"
     id="path3487" />
  <g
     class="envelope-result">
    <path
       d="m 288.96,530.66 a 7.564,7.564 0 0 1 -2.869,-0.563 L 124.501,463.049 V 253.175 a 7.008,7.008 0 0 1 7,-7 h 310 a 7.008,7.008 0 0 1 7,7 v 210.02 l -0.305,0.13 -156.28,66.74 a 7.616,7.616 0 0 1 -2.956,0.594 z"
       fill="#ffffff"
       id="path3479" />
    <path
       d="M 288.96,531.159 A 8.072,8.072 0 0 1 285.9,530.56 L 124,463.383 V 253.175 a 7.509,7.509 0 0 1 7.5,-7.5 h 310 a 7.509,7.509 0 0 1 7.5,7.5 v 210.35 l -156.887,67 a 8.11,8.11 0 0 1 -3.153,0.634 z M 126,462.047 286.663,528.711 a 6.118,6.118 0 0 0 4.668,-0.028 l 155.67,-66.478 v -209.03 a 5.507,5.507 0 0 0 -5.5,-5.5 h -310 a 5.507,5.507 0 0 0 -5.5,5.5 z"
       fill="#3f3d56"
       id="path3481" />
    <path
       d="m 287.345,471.147 a 27.499,27.499 0 0 1 -16.546,-5.496 l -0.296,-0.222 -62.31,-47.708 a 27.683,27.683 0 1 1 33.673,-43.949 l 40.36,30.948 95.379,-124.387 a 27.682,27.682 0 0 1 38.813,-5.124 l -0.593,0.806 0.608,-0.794 a 27.714,27.714 0 0 1 5.124,38.814 L 309.369,460.343 a 27.694,27.694 0 0 1 -22.024,10.804 z"
       fill="#fb7185"
       id="path3483" />
  </g>
</svg>
