<?xml version="1.0" encoding="UTF-8"?>
<svg width="570" height="511.68" data-name="Layer 1" version="1.1" viewBox="0 0 570 511.68" xmlns="http://www.w3.org/2000/svg">
 <path d="m564.86 195.68a0.997 0.997 0 0 1-0.572-0.18l-276.56-192.6a5.015 5.015 0 0 0-5.729 0.01l-274.57 192.59a1.0001 1.0001 0 0 1-1.148-1.638l274.57-192.59a7.022 7.022 0 0 1 8.02-0.013l276.56 192.6a1 1 0 0 1-0.572 1.82z" fill="#3f3d56"/>
 <path d="m22.849 202.5 262.01-194.18 264 208-250.5 148.5-136-31z" fill="#fcba74"/>
 <g class="envelope-result" stroke-width=".85075">
  <path d="m287.95 513.39a6.4351 6.4351 0 0 1-2.4408-0.47899l-137.47-57.041v-178.55a5.9621 5.9621 0 0 1 5.9553-5.9553h263.73a5.9621 5.9621 0 0 1 5.9553 5.9553v178.67l-0.25948 0.1106-132.96 56.779a6.4793 6.4793 0 0 1-2.5148 0.50534z" fill="#fff"/>
  <path class="success-sign hidden" d="m264.64 462.75a23.395 23.395 0 0 1-14.077-4.6757l-0.25182-0.18886-53.01-40.588a23.551 23.551 0 1 1 28.647-37.39l34.336 26.329 81.144-105.82a23.551 23.551 0 0 1 33.02-4.3593l-0.5045 0.68573 0.51726-0.67551a23.578 23.578 0 0 1 4.3592 33.021l-95.444 124.47a23.561 23.561 0 0 1-18.737 9.1915z" fill="#10b981"/>
  <path class="error-sign hidden" d="m237.93 293.9c-4.9055 0.0196-9.8466 1.5636-14.066 4.7402l0.51367 0.67969-0.52734-0.66797c-4.2184 3.1825-7.0629 7.5082-8.4297 12.221-1.9976 6.8875-0.83743 14.599 3.8144 20.764l36.824 48.814-37.254 48.574c-11.563 17.8 2.139 32.916 6.7168 34.445 18.848 8.5255 27.133-1.155 31.607-6.9688l28.379-37.01 29.1 38.574c14.066 15.895 32.29 6.7259 34.986 2.7227 13.248-15.888 6.1328-26.454 1.7246-32.318l-36.053-47.787 37.307-48.652c7.8999-10.326 5.9516-25.099-4.3574-33.021l-0.51758 0.67578 0.50391-0.68554c-4.1933-3.2155-9.1229-4.8024-14.029-4.8613-7.1708-0.0862-14.291 3.0917-18.99 9.2207l-29.367 38.291-28.965-38.393c-4.6563-6.1573-11.75-9.386-18.92-9.3574z" fill="#ef4444"/>
  <path d="m287.95 513.81a6.8673 6.8673 0 0 1-2.6033-0.5096l-137.74-57.151v-178.83a6.3883 6.3883 0 0 1 6.3806-6.3806h263.73a6.3883 6.3883 0 0 1 6.3806 6.3806v178.96l-133.47 57a6.8996 6.8996 0 0 1-2.6824 0.53938zm-138.64-58.797 136.68 56.715a5.2049 5.2049 0 0 0 3.9713-0.0238l132.44-56.556v-177.83a4.6851 4.6851 0 0 0-4.6792-4.6791h-263.73a4.6851 4.6851 0 0 0-4.6792 4.6791z" fill="#3f3d56"/>
 </g>
 <path d="m568.85 506.54a5.002 5.002 0 0 1-5 5h-556a5.002 5.002 0 0 1-5-5v-304a5.011 5.011 0 0 1 4.81-5l118.19 49.04 161.28 66.92a7.12 7.12 0 0 0 5.44-0.03l156.28-66.74 115.2-49.19a5.016 5.016 0 0 1 4.8 5z" stroke="#3f3d56" stroke-width="2"/>
 <path d="m174.26 456.54h-129.44a6.047 6.047 0 1 1 0-12.095h129.44a6.047 6.047 0 1 1 0 12.095zm-83-26h-46.44a6.047 6.047 0 1 1 0-12.095h46.44a6.047 6.047 0 1 1 0 12.095z" fill="#fb7185"/>
</svg>
