<?xml version="1.0" encoding="UTF-8"?>
<svg id="b411f001-b16f-4358-a5a6-150c98662c8c" width="987.62" height="787.4" data-name="Layer 1" version="1.1" viewBox="0 0 987.62 787.4" xmlns="http://www.w3.org/2000/svg">
 <title>science</title>
 <g fill="#FB7185">
  <ellipse cx="607.32" cy="767.92" rx="103.75" ry="10.41" opacity=".1"/>
  <ellipse cx="292.99" cy="763.13" rx="78.75" ry="4.86" opacity=".1"/>
  <path transform="translate(-106.19 -56.3)" d="m445 90.55c29.21-26 75.07-31.33 116.8-29.26 131.09 6.51 249.42 69.8 351.78 141.39 37.06 25.91 73.54 53.84 97.59 89.53 49 72.64 34.44 173.28-33.64 233.13-23.17 20.36-51.25 36-80.08 49.81-51.26 24.61-106.57 44.36-164.74 50-41.49 4-83.49 0.75-124.73-4.85-115.24-15.64-228.35-50.2-323.15-109.3-41.58-26-80.78-58.2-97.92-100.15s-6.17-95.11 36.29-119.94c17.56-10.27 38.56-14.91 59.11-19.26 30.26-6.41 61-12.73 88.31-25.77 28.2-13.46 61.59-39.49 56-69.28-5.98-31.97-10.79-60.05 18.38-86.05z" opacity=".1"/>
 </g>
 <path d="m674.86 391.78v-190.94h26v-57h-186.3v57h26v190.94a189.38 189.38 0 0 0-122.14 177c0 104.55 84.76 189.3 189.31 189.3s189.3-84.75 189.3-189.3a189.37 189.37 0 0 0-122.17-177z" fill="#fcba74" opacity=".9"/>
 <rect x="540.52" y="200.25" width="134.34" height="2.57" opacity=".1"/>
 <path d="m501.81 563.7s114-2 171-30.53 89.57-3.06 86.51 14.25-19.33 50.88-84.47 55-173.04-38.72-173.04-38.72z" fill="#FB7185"/>
 <path d="m501.81 563.7s114-2 171-30.53 89.57-3.06 86.51 14.25-19.33 50.88-84.47 55-173.04-38.72-173.04-38.72z" opacity=".1"/>
 <path d="m452.99 545.4s-12.18 168.95 147.57 172 158.77-170 158.77-170-59 64.11-198.46 11.19c0 0.04-72.26-19.3-107.88-13.19z" fill="#FB7185"/>
 <path d="m758.81 548.01c-3.19 38.92-23.88 160.75-158.19 158.18-131.66-2.49-146.57-117.59-147.74-158.08-0.73 21.73-0.08 166.45 147.71 169.28 159.79 3 158.77-170 158.77-170s-0.2 0.25-0.55 0.62z" opacity=".1"/>
 <g fill="#FB7185">
  <circle cx="601.53" cy="472.5" r="20.73" opacity=".3"/>
  <circle cx="613.37" cy="389.57" r="12.83" opacity=".3"/>
  <circle cx="584.74" cy="315.52" r="12.83" opacity=".3"/>
 </g>
 <path d="m474.81 488.49c-1.1 8.74-0.88 19.68 6.93 23.76-6.55-3.42 20.3-42.2 16.49-50.12-8.15-16.9-22.42 18.24-23.42 26.36z" fill="#fff" opacity=".2"/>
 <g fill="#FB7185">
  <circle cx="574.37" cy="85.01" r="20.73" opacity=".3"/>
  <circle cx="636.56" cy="49.47" r="15.41" opacity=".3"/>
  <circle cx="591.33" cy="28.163" r="8.01" opacity=".3"/>
 </g>
 <path d="m377.81 263.18h-167.53v49.69h25.53v387.66a58.25 58.25 0 1 0 116.49 0v-387.66h25.51z" fill="#fcba74" opacity=".9"/>
 <path d="m274.62 400.7s41.46-14.81 53-4.28c0 0-16.79 24.68-32.25 23.69s-20.75-19.41-20.75-19.41z" fill="#FB7185"/>
 <path d="m274.62 400.7s41.46-14.81 53-4.28c0 0-16.79 24.68-32.25 23.69s-20.75-19.41-20.75-19.41z" opacity=".1"/>
 <path d="m327.6 396.46v281.36a35.54 35.54 0 0 1-35.54 35.54 35.54 35.54 0 0 1-35.54-35.54v-281.36s17.11-4.61 33.23 5.27 37.85-5.27 37.85-5.27z" fill="#FB7185"/>
 <rect x="235.79" y="312.56" width="116.49" height="2.29" opacity=".1"/>
 <path d="m292.06 696.25a35.54 35.54 0 0 1-35.54-35.55v17.77a35.54 35.54 0 0 0 35.54 35.54 35.54 35.54 0 0 0 35.54-35.54v-17.77a35.54 35.54 0 0 1-35.54 35.55z" opacity=".1"/>
 <g fill="#FB7185">
  <circle cx="292.07" cy="361.59" r="7.24" opacity=".3"/>
  <circle cx="315.76" cy="335.92" r="4.61" opacity=".3"/>
  <circle cx="283.51" cy="326.71" r="4.61" opacity=".3"/>
 </g>
 <path d="m244.81 453.94c-1.1 8.74-0.88 19.68 6.93 23.76-6.56-3.42 20.3-42.19 16.49-50.12-8.17-16.88-22.42 18.25-23.42 26.36z" fill="#fff" opacity=".2"/>
 <g fill="#FB7185">
  <circle cx="307.09" cy="214.5" r="17.59" opacity=".3"/>
  <circle cx="254.32" cy="184.34" r="13.08" opacity=".3"/>
  <circle cx="292.01" cy="149.16" r="6.8" opacity=".3"/>
 </g>
</svg>
