<?xml version="1.0" encoding="UTF-8"?>
<svg width="570" height="511.68" data-name="Layer 1" version="1.1" viewBox="0 0 570 511.68" xmlns="http://www.w3.org/2000/svg">
 <path d="m564.86 195.68a0.997 0.997 0 0 1-0.572-0.18l-276.56-192.6a5.015 5.015 0 0 0-5.729 0.01l-274.57 192.59a1.0001 1.0001 0 0 1-1.148-1.638l274.57-192.59a7.022 7.022 0 0 1 8.02-0.013l276.56 192.6a1 1 0 0 1-0.572 1.82z" fill="#3f3d56"/>
 <path d="m22.849 202.5 262.01-194.18 264 208-250.5 148.5-136-31z" fill="#fcba74"/>
 <path d="m-219.11 691.17h-0.2l-271.87 116.09a5.066 5.066 0 0 1-3.88 0.02l-162.05-67.23-117.62-48.8-0.18-0.08h-0.2a7.008 7.008 0 0 0-7 7v304a7.008 7.008 0 0 0 7 7h556a7.008 7.008 0 0 0 7-7v-304a7.008 7.008 0 0 0-7-7z" fill="#3f9a56" stroke="#688900"/>
 <g class="envelope-result" stroke-width=".85075">
  <path d="m287.95 513.39a6.4351 6.4351 0 0 1-2.4408-0.47899l-137.47-57.041v-178.55a5.9621 5.9621 0 0 1 5.9553-5.9553h263.73a5.9621 5.9621 0 0 1 5.9553 5.9553v178.67l-0.25948 0.1106-132.96 56.779a6.4793 6.4793 0 0 1-2.5148 0.50534z" fill="#fff"/>
  <path d="m264.64 462.75a23.395 23.395 0 0 1-14.077-4.6757l-0.25182-0.18886-53.01-40.588a23.551 23.551 0 1 1 28.647-37.39l34.336 26.329 81.144-105.82a23.551 23.551 0 0 1 33.02-4.3593l-0.5045 0.68573 0.51726-0.67551a23.578 23.578 0 0 1 4.3592 33.021l-95.444 124.47a23.561 23.561 0 0 1-18.737 9.1915z" fill="#fb7185"/>
  <path d="m287.95 513.81a6.8673 6.8673 0 0 1-2.6033-0.5096l-137.74-57.151v-178.83a6.3883 6.3883 0 0 1 6.3806-6.3806h263.73a6.3883 6.3883 0 0 1 6.3806 6.3806v178.96l-133.47 57a6.8996 6.8996 0 0 1-2.6824 0.53938zm-138.64-58.797 136.68 56.715a5.2049 5.2049 0 0 0 3.9713-0.0238l132.44-56.556v-177.83a4.6851 4.6851 0 0 0-4.6792-4.6791h-263.73a4.6851 4.6851 0 0 0-4.6792 4.6791z" fill="#3f3d56"/>
 </g>
 <path d="m568.85 506.54a5.002 5.002 0 0 1-5 5h-556a5.002 5.002 0 0 1-5-5v-304a5.011 5.011 0 0 1 4.81-5l118.19 49.04 161.28 66.92a7.12 7.12 0 0 0 5.44-0.03l156.28-66.74 115.2-49.19a5.016 5.016 0 0 1 4.8 5z" stroke="#3f3d56" stroke-width="2"/>
 <path d="m174.26 456.54h-129.44a6.047 6.047 0 1 1 0-12.095h129.44a6.047 6.047 0 1 1 0 12.095zm-83-26h-46.44a6.047 6.047 0 1 1 0-12.095h46.44a6.047 6.047 0 1 1 0 12.095z" fill="#fb7185"/>
</svg>
